<svg id="Layer_1" data-name="Layer 1" xmlns="http://www.w3.org/2000/svg" xmlns:xlink="http://www.w3.org/1999/xlink" viewBox="0 0 6452.04 935.65"><defs><style>.cls-1,.cls-4{fill:none;}.cls-2{clip-path:url(#clip-path);}.cls-3{fill:#31afb5;}.cls-4{stroke:#135775;stroke-miterlimit:10;stroke-width:8px;}.cls-5{fill:#2e2e2e;}</style><clipPath id="clip-path" transform="translate(-22.21 -21.08)"><rect class="cls-1" x="-78.9" y="-216.48" width="1410.77" height="1410.77"/></clipPath></defs><title>Student Intellect webjkjklogo</title><g class="cls-2"><path class="cls-3" d="M808.28,661.59c0,131.7-87.45,243-207.47,278.89a289.66,289.66,0,0,1-83.63,12.24H31.29C51.5,845.45,130.56,759,233.68,728.08a290.81,290.81,0,0,1,83.66-12.21H517.17a54.28,54.28,0,0,0,0-108.56H317.34a290.81,290.81,0,0,1-83.66-12.21c-120-35.93-207.47-147.2-207.47-278.89s87.45-243,207.47-278.89a289.87,289.87,0,0,1,83.66-12.24H800.89c0.78,0,1.56,0,2.31,0C783,132.38,703.9,218.86,600.81,249.72a290.62,290.62,0,0,1-83.63,12.21H317.34a54.28,54.28,0,1,0,0,108.56H517.17a290.59,290.59,0,0,1,83.63,12.21C703.9,413.56,783,500,803.2,607.29A290.4,290.4,0,0,1,808.28,661.59Z" transform="translate(-22.21 -21.08)"/><path class="cls-4" d="M808.28,661.59c0,131.7-87.45,243-207.47,278.89a289.66,289.66,0,0,1-83.63,12.24H31.29C51.5,845.45,130.56,759,233.68,728.08a290.81,290.81,0,0,1,83.66-12.21H517.17a54.28,54.28,0,0,0,0-108.56H317.34a290.81,290.81,0,0,1-83.66-12.21c-120-35.93-207.47-147.2-207.47-278.89s87.45-243,207.47-278.89a289.87,289.87,0,0,1,83.66-12.24H800.89c0.78,0,1.56,0,2.31,0C783,132.38,703.9,218.86,600.81,249.72a290.62,290.62,0,0,1-83.63,12.21H317.34a54.28,54.28,0,1,0,0,108.56H517.17a290.59,290.59,0,0,1,83.63,12.21C703.9,413.56,783,500,803.2,607.29A290.4,290.4,0,0,1,808.28,661.59Z" transform="translate(-22.21 -21.08)"/><path class="cls-3" d="M1226.59,950.19h-87.2A291,291,0,0,1,848.26,659.06V354.21h236.85v105c0,0.78,0,1.56,0,2.34h0V659.06c0.22,22.75,9.12,36.16,19,44l0.11,0.08c1.17,0.92,2.34,1.76,3.51,2.54A291.28,291.28,0,0,1,1226.59,950.19Z" transform="translate(-22.21 -21.08)"/><path class="cls-4" d="M1226.59,950.19h-87.2A291,291,0,0,1,848.26,659.06V354.21h236.85v105c0,0.78,0,1.56,0,2.34h0V659.06c0.22,22.75,9.12,36.16,19,44l0.11,0.08c1.17,0.92,2.34,1.76,3.51,2.54A291.28,291.28,0,0,1,1226.59,950.19Z" transform="translate(-22.21 -21.08)"/><path class="cls-3" d="M1084.83,301.38H848.26V29.93c0-.78,0-1.56,0-2.31q13,2.47,25.68,6.08a291.61,291.61,0,0,1,197.21,190.74c0.59,1.84,1.17,3.71,1.73,5.58a293,293,0,0,1,7.16,29.38A285.42,285.42,0,0,1,1084.83,301.38Z" transform="translate(-22.21 -21.08)"/><path class="cls-4" d="M1084.83,301.38H848.26V29.93c0-.78,0-1.56,0-2.31q13,2.47,25.68,6.08a291.61,291.61,0,0,1,197.21,190.74c0.59,1.84,1.17,3.71,1.73,5.58a293,293,0,0,1,7.16,29.38A285.42,285.42,0,0,1,1084.83,301.38Z" transform="translate(-22.21 -21.08)"/></g><path class="cls-5" d="M1622.31,639.47q-19.25,30.29-54.9,48.59t-83,18.3q-72.57,0-116.73-33.76t-44.17-95h94.65q2.51,28.4,19.24,43.22t47,14.83q30.29,0,48-15.78t17.67-41q0-20.19-12.3-32.81a83.85,83.85,0,0,0-30.29-19.56q-18-6.94-50.79-15.78-42.28-10.72-68.78-22.08T1342.47,453q-18.93-24.28-18.93-65.94,0-39.75,19.88-69.72t55.21-46.06q35.33-16.09,80.14-16.09,68.77,0,110.42,31.23t45.43,95h-97.17q-2.53-25.23-18.93-40.07t-42.28-14.83q-27.14,0-43.85,13.57t-16.72,41.33q0,20.82,12.3,33.76a81.16,81.16,0,0,0,30.6,19.88q18.29,7,50.48,15.14,42.27,10.74,68.78,22.08t45.12,35.65q18.6,24.3,18.61,65.94A120.08,120.08,0,0,1,1622.31,639.47Z" transform="translate(-22.21 -21.08)"/><path class="cls-5" d="M1904.67,627.48v74.46h-56.16q-53.64,0-82.66-24.61t-29-81.4v-171H1699.6V352.37h37.23V265.92h89v86.45H1904v72.56H1825.8v171q0,17,8.2,24.29t28.4,7.26h42.28Z" transform="translate(-22.21 -21.08)"/><path class="cls-5" d="M2304.09,352.37V701.94h-89v-53a111.06,111.06,0,0,1-44.48,42.59q-28.08,14.83-64.68,14.83-38.5,0-69.09-17.35t-48.27-51.11q-17.67-33.75-17.67-80.45V352.37h88.34V544.82q0,41,20.82,63.1T2136.88,630q36,0,57.1-22.09t21.14-63.1V352.37h89Z" transform="translate(-22.21 -21.08)"/><path class="cls-5" d="M2602.54,363.09a125.59,125.59,0,0,1,46.69,43.54V235h88.34V701.94h-88.34V643.25a136.78,136.78,0,0,1-47,46.69q-28.72,17-65.94,17-44.81,0-81.71-23t-58.68-64q-21.77-41-21.77-93.39t21.77-93.07q21.77-40.7,58.68-63.41t81.71-22.72Q2573.51,347.32,2602.54,363.09ZM2512,436.29q-21.15,12-34.39,35t-13.25,55.21q0,32.18,13.25,55.84T2512,618a88.8,88.8,0,0,0,44.48,12,90,90,0,0,0,45.12-12q21.13-12,34.39-35.34t13.25-55.53q0-32.18-13.25-55.53t-34.39-35.34a90.11,90.11,0,0,0-45.12-12A88.91,88.91,0,0,0,2512,436.29Z" transform="translate(-22.21 -21.08)"/><path class="cls-5" d="M3153.4,556.18H2898.47q3.15,34.07,25.24,54.9t56.16,20.82q26.5,0,42.28-10.1A78.42,78.42,0,0,0,3048,594h95.91q-15.14,49.85-58.68,81.4T2979.87,707q-49.85,0-89-22.4t-61.21-63.1q-22.09-40.7-22.09-95t22.09-94.65q22.08-40.37,61.52-62.47t89.92-22.08q50.47,0,89.92,21.45a157.37,157.37,0,0,1,62.15,60.89q22.72,39.44,22.72,92.44A216.69,216.69,0,0,1,3153.4,556.18Zm-89.6-57.42q-1.89-34.69-25.55-55.53t-58.37-20.82q-32.18,0-54.58,20.82t-26.82,55.53h165.32Z" transform="translate(-22.21 -21.08)"/><path class="cls-5" d="M3493.18,364.67q30.6,17.36,48.27,51.11t17.67,80.45v205.7h-88.34V508.85q0-41-20.82-62.78t-56.79-21.77q-36,0-57.1,21.77t-21.14,62.78V701.94h-89V352.37h89v52.37a111.07,111.07,0,0,1,44.48-42.59q28.07-14.82,64-14.83Q3462.57,347.32,3493.18,364.67Z" transform="translate(-22.21 -21.08)"/><path class="cls-5" d="M3828.54,627.48v74.46h-56.16q-53.64,0-82.66-24.61t-29-81.4v-171h-37.23V352.37h37.23V265.92h89v86.45h78.24v72.56h-78.24v171q0,17,8.2,24.29t28.39,7.26h42.28Z" transform="translate(-22.21 -21.08)"/><path class="cls-5" d="M4144.66,264.66V701.94h-57.42V264.66h57.42Z" transform="translate(-22.21 -21.08)"/><path class="cls-5" d="M4477.51,366.56q30.6,16.73,48.59,49.85t18,80.45V701.94h-56.79V506.33q0-52.37-25.24-79.5t-70-27.13q-44.17,0-69.72,27.13t-25.56,79.5V701.94h-57.42V355.52h57.42v56.16q17-30.29,46.69-46.06t66.25-15.77Q4446.9,349.84,4477.51,366.56Z" transform="translate(-22.21 -21.08)"/><path class="cls-5" d="M4796.47,655.24v46.69h-58.05q-44.17,0-67.2-21.45t-23-67.52V402.22h-44.8V355.52h44.8V269.71h58.05v85.81h89.6v46.69h-89.6V613q0,23.35,9.47,32.81t33.44,9.47h47.32Z" transform="translate(-22.21 -21.08)"/><path class="cls-5" d="M5171.27,548.6H4895.53q2.51,51.75,32.5,81.71t76.67,30q35.33,0,59.63-15.78A93.69,93.69,0,0,0,5100,602.87h61.84q-16.42,45.43-56.47,75.09t-100.64,29.66q-48.6,0-86.76-22.09t-59.63-62.78q-21.46-40.7-21.45-93.7,0-53.62,21.45-94.33t60.57-62.78q39.12-22.08,90.23-22.08,48.58,0,85.81,21.45A152.61,152.61,0,0,1,5153,430q20.82,37.24,20.82,84.55A216.69,216.69,0,0,1,5171.27,548.6ZM5113.85,507q0-33.44-14.51-58.37a98.41,98.41,0,0,0-39.44-38.17q-24.93-13.25-55.21-13.25-44.81,0-75.09,29.34T4896.16,507h217.69Z" transform="translate(-22.21 -21.08)"/><path class="cls-5" d="M5302.51,235V701.94h-57.42V235h57.42Z" transform="translate(-22.21 -21.08)"/><path class="cls-5" d="M5454.58,235V701.94h-57.42V235h57.42Z" transform="translate(-22.21 -21.08)"/><path class="cls-5" d="M5860.94,548.6H5585.2q2.51,51.75,32.5,81.71t76.67,30q35.33,0,59.63-15.78a93.69,93.69,0,0,0,35.65-41.64h61.84Q5835.06,648.3,5795,678t-100.64,29.66q-48.6,0-86.76-22.09T5548,622.75q-21.46-40.7-21.45-93.7,0-53.62,21.45-94.33t60.57-62.78q39.12-22.08,90.23-22.08,48.58,0,85.81,21.45A152.61,152.61,0,0,1,5842.64,430q20.82,37.24,20.82,84.55A216.69,216.69,0,0,1,5860.94,548.6ZM5803.52,507q0-33.44-14.51-58.37a98.41,98.41,0,0,0-39.44-38.17q-24.93-13.25-55.21-13.25-44.81,0-75.09,29.34T5585.83,507h217.69Z" transform="translate(-22.21 -21.08)"/><path class="cls-5" d="M6181.79,378.87q39.43,29,55.21,82.66h-61.84q-10.1-30.29-34.7-47.32t-60.58-17q-49.22,0-79.19,34.39t-30,97.49q0,62.47,30,96.86t79.19,34.39q36.59,0,60.58-16.41t34.7-48H6237q-15.78,51.11-55.84,81.4t-101.27,30.29q-48.6,0-86.76-22.09t-59.63-62.78Q5912,582,5912,529q0-53.62,21.45-94.33t59.31-62.78q37.86-22.08,87.08-22.08Q6142.36,349.84,6181.79,378.87Z" transform="translate(-22.21 -21.08)"/><path class="cls-5" d="M6474.25,655.24v46.69H6416.2q-44.17,0-67.2-21.45T6326,613V402.22h-44.8V355.52H6326V269.71H6384v85.81h89.6v46.69H6384V613q0,23.35,9.47,32.81t33.44,9.47h47.33Z" transform="translate(-22.21 -21.08)"/></svg>