<svg id="Layer_1" data-name="Layer 1" xmlns="http://www.w3.org/2000/svg" viewBox="0 0 1000 1000"><defs><style>.cls-1{fill:#fff;}.cls-2{fill:#ff6242;}.cls-10,.cls-3,.cls-9{fill:none;stroke:#070808;stroke-width:6px;}.cls-10,.cls-3{stroke-miterlimit:10;}.cls-4{fill:#ffda8f;stroke:#45413c;}.cls-10,.cls-4,.cls-9{stroke-linecap:round;}.cls-4,.cls-9{stroke-linejoin:round;}.cls-5{fill:#ffbe3d;}.cls-6{fill:#724f3d;}.cls-7{fill:#a86c4d;}.cls-8{fill:#efdd5c;}.cls-11{fill:#070808;}.cls-12{fill:#cfd5ec;}.cls-13{fill:#73e1ff;}.cls-14{fill:#e4e4e4;}.cls-15{fill:#ea7aaf;}.cls-16{font-size:33.39px;font-family:Poppins;font-weight:700;letter-spacing:3px;}</style></defs><title>108-forget-password</title><rect class="cls-1" width="1000" height="1000"/><ellipse class="cls-2" cx="365.19" cy="728.64" rx="154.01" ry="96.23"/><ellipse class="cls-3" cx="365.19" cy="728.64" rx="154.01" ry="96.23"/><path class="cls-4" d="M352.83,567.39l-22.38,71.15a52.5,52.5,0,0,0,50.08,68.25h0a52.5,52.5,0,0,0,52.35-48.61l6.51-87.78Z" transform="translate(0)"/><path class="cls-5" d="M330.45,638.54s45.71,18,74,2.39S441.59,597,441.59,597l-10.74-26.37-85-3.91Z" transform="translate(0)"/><path class="cls-3" d="M352.83,567.39l-22.38,71.15a52.5,52.5,0,0,0,50.08,68.25h0a52.5,52.5,0,0,0,52.35-48.61l6.51-87.78Z" transform="translate(0)"/><path class="cls-6" d="M389.92,468.46a78.69,78.69,0,0,0-157.39,0c8.08,9.84,2.35,21.84,6.57,31.48a78.69,78.69,0,1,0,144.25,0A78.4,78.4,0,0,0,389.92,468.46Z" transform="translate(0)"/><path class="cls-7" d="M330.92,569.57c-43.46,0-74.7-15.54-73.86-59,1-51.95,44.45-40.75,44.45-51.95,0-18.22-6.79-58.64-4.74-89.9-38.74.94-76.52,13.4-85.45,44.68-5.41,18.92,11.73,44.38,24.57,58.1,3.39,12.73-15.36,13.3,3.21,28.43a78.68,78.68,0,0,0,134.21,79.8C362.16,585.81,344.52,569.57,330.92,569.57Z" transform="translate(0)"/><path class="cls-3" d="M389.92,468.46c0-43.46-37.51-63.31-72.11-89.62-41.4-31.49-154.51,14.4-85.28,89.62,19,20.65-22.13,7.51,6.57,31.48a78.69,78.69,0,1,0,144.25,0A78.4,78.4,0,0,0,389.92,468.46Z" transform="translate(0)"/><path class="cls-4" d="M299.7,408H495.48a0,0,0,0,1,0,0V517.18a97.89,97.89,0,0,1-97.89,97.89h0a97.89,97.89,0,0,1-97.89-97.89V408A0,0,0,0,1,299.7,408Z"/><path class="cls-5" d="M316.6,456s25.48,11.24,72.5,5.84c43.84-5,80-23.92,80-23.92s25.15,15.51,25.15,24.52c10.94-3.86,16.09-57.27,16.09-57.27L471,398.13S317.88,430.31,316.6,456Z" transform="translate(0)"/><path class="cls-5" d="M410.81,595.12c-81,9-108.08-72.21-108.08-72.21-0.94,1.3-1.78,2.61-2.56,3.93a97.9,97.9,0,0,0,97.42,88.23h0a97.89,97.89,0,0,0,87.47-53.9l2.39-13.67S481.35,587.28,410.81,595.12Z" transform="translate(0)"/><path class="cls-3" d="M299.7,408H495.48a0,0,0,0,1,0,0V517.18a97.89,97.89,0,0,1-97.89,97.89h0a97.89,97.89,0,0,1-97.89-97.89V408A0,0,0,0,1,299.7,408Z"/><path class="cls-8" d="M460.94,357.18s-15.8,30,2.28,57.68c6,9.23,29.15,10.36,31.59,33.35,3,27.72,52.81-54.33,3.51-87.32C489,354.63,464,326.88,460.94,357.18Z" transform="translate(0)"/><path class="cls-6" d="M460.94,357.18s-15.8,30,2.28,57.68c6,9.23,29.15,10.36,31.59,33.35,3,27.72,52.81-54.33,3.51-87.32C489,354.63,464,326.88,460.94,357.18Z" transform="translate(0)"/><path class="cls-9" d="M460.94,357.18s-15.8,30,2.28,57.68c6,9.23,29.15,10.36,31.59,33.35,3,27.72,50.81-51.65,3.51-87.32C489.35,354.11,464,326.88,460.94,357.18Z" transform="translate(0)"/><path class="cls-7" d="M301.51,458.62c60.26-1,122.61-11.58,174.43-49.91,15.17-11.22,23.61-43.39,7.53-62.41-63.71-75.36-162-18-181.93,14.19C281,393.72,273.2,427.61,301.51,458.62Z" transform="translate(0)"/><path class="cls-6" d="M488.25,353.71c-1.84,12.17-7.84,23.43-15.61,29.18C426.71,416.86,372.51,429,318.82,432a35.43,35.43,0,0,1-35.42-22.91l-0.09-.24c-10.1,11.22-9.27,35.12,18.2,49.73,60.26-1,122.61-11.58,174.43-49.91C489.28,398.85,497.41,372.79,488.25,353.71Z" transform="translate(0)"/><path class="cls-9" d="M299.68,457.48c4.57,4.47,129.77-5.13,176.26-48.76,13.76-12.91,23.61-43.39,7.53-62.41-63.71-75.36-162-18-181.93,14.19C295,371,288.67,382.7,284.74,394.76" transform="translate(0)"/><path class="cls-10" d="M481.91,470.31s-8.31-11-22.92-10.44" transform="translate(0)"/><ellipse class="cls-11" cx="468.1" cy="484.39" rx="5.23" ry="9.23" transform="translate(-31.14 32.16) rotate(-3.81)"/><polyline class="cls-9" points="431.29 482.64 450.67 513.45 429.78 518.67"/><path class="cls-10" d="M365.87,481.7s7.92-11.28,22.55-11.23" transform="translate(0)"/><ellipse class="cls-11" cx="386.13" cy="493.94" rx="5.23" ry="9.23" transform="translate(-90.36 86.47) rotate(-11.45)"/><path class="cls-9" d="M405.11,556.14s19.85-26.78,48.08-11.69" transform="translate(0)"/><path class="cls-9" d="M460.94,357.18s-6.73,35.62-60.39,38.49" transform="translate(0)"/><path class="cls-4" d="M314.17,511.69c-25.68,10.06-45.59-14.94-45.11-26,3.12-71.82,47.37-24.21,47.37-24.21" transform="translate(0)"/><path class="cls-10" d="M314.17,511.69c-31.94,15.75-53.09-28.1-46.36-45.31,17.12-43.81,48.63-4.92,48.63-4.92" transform="translate(0)"/><rect class="cls-12" x="593.25" y="174.18" width="274.25" height="211.69" rx="43.91" ry="43.91"/><rect class="cls-13" x="607.25" y="157.7" width="274.25" height="211.69" rx="43.91" ry="43.91"/><rect class="cls-3" x="607.25" y="157.7" width="274.25" height="211.69" rx="43.91" ry="43.91"/><circle class="cls-3" cx="617.45" cy="418.22" r="23.45"/><circle class="cls-3" cx="576.25" cy="461.52" r="14.49"/><rect class="cls-1" x="651.22" y="283.05" width="179.6" height="50.16" rx="11.31" ry="11.31"/><path class="cls-14" d="M674.2,322.12a11.31,11.31,0,0,1-11.31-11.31V283.27c0-.07,0-0.15,0-0.22h-0.37a11.31,11.31,0,0,0-11.31,11.31V321.9a11.31,11.31,0,0,0,11.31,11.31h157a11.3,11.3,0,0,0,11.3-11.09H674.2Z" transform="translate(0)"/><rect class="cls-3" x="651.22" y="283.05" width="179.6" height="50.16" rx="11.31" ry="11.31"/><path class="cls-10" d="M655.7,257.58s83.7-13.63,72.56-44.3c-9.36-25.76-33-6.86-32.19-.74,5.74,42.68,71.68,47.58,83.94,14,16.83-46-19-42.26-12.31-18.91s37.9-17.74,44.58,16.89" transform="translate(0)"/><path class="cls-15" d="M724,503.4a11.85,11.85,0,0,1,2.1-6.64,21.67,21.67,0,0,1,4.55-5.1,28.57,28.57,0,0,0,4.55-4.55,8.35,8.35,0,0,0,2.1-5.22,5.13,5.13,0,0,0-1.9-4.27,8.35,8.35,0,0,0-5.3-1.5q-6.64,0-9.41,7l-9.33-5.38a18.53,18.53,0,0,1,7.55-9.06,21.59,21.59,0,0,1,11.59-3.2,19.5,19.5,0,0,1,12.46,4.15,13.76,13.76,0,0,1,5.26,11.43,13.94,13.94,0,0,1-1.38,6.17,18.85,18.85,0,0,1-3.32,4.87q-1.94,2-3.88,3.8a25,25,0,0,0-3.32,3.68,6.42,6.42,0,0,0-1.38,3.8H724ZM734.18,521a6.68,6.68,0,1,1,2-4.75A6.48,6.48,0,0,1,734.18,521Z" transform="translate(0)"/><path class="cls-15" d="M480,226.05a14.44,14.44,0,0,1,2.56-8.1,26.44,26.44,0,0,1,5.54-6.22,34.81,34.81,0,0,0,5.54-5.54,10.17,10.17,0,0,0,2.55-6.36,6.26,6.26,0,0,0-2.31-5.21,10.17,10.17,0,0,0-6.46-1.83q-8.1,0-11.47,8.58l-11.38-6.56a22.58,22.58,0,0,1,9.21-11,26.31,26.31,0,0,1,14.12-3.9,23.77,23.77,0,0,1,15.18,5.06q6.41,5.06,6.41,13.93a17,17,0,0,1-1.69,7.52,23,23,0,0,1-4,5.93q-2.36,2.46-4.72,4.63a30.44,30.44,0,0,0-4,4.48,7.82,7.82,0,0,0-1.69,4.63H480Zm12.44,21.5a8.15,8.15,0,1,1,2.41-5.78A7.9,7.9,0,0,1,492.44,247.55Z" transform="translate(0)"/><text class="cls-16" transform="translate(693.61 319.34) scale(1 1.1)">404!</text></svg>