<?xml version="1.0" encoding="UTF-8"?><svg id="OBJECTS" xmlns="http://www.w3.org/2000/svg" xmlns:xlink="http://www.w3.org/1999/xlink" viewBox="0 0 750 500"><defs><style>.cls-1{filter:url(#drop-shadow-24);}.cls-2{filter:url(#drop-shadow-10);}.cls-3{filter:url(#drop-shadow-14);}.cls-4{filter:url(#drop-shadow-7);}.cls-5{filter:url(#drop-shadow-30);}.cls-6{filter:url(#drop-shadow-49);}.cls-7{filter:url(#drop-shadow-43);}.cls-8{fill:#dee0df;}.cls-9{filter:url(#drop-shadow-33);}.cls-10{filter:url(#drop-shadow-21);}.cls-11{filter:url(#drop-shadow-4);}.cls-12{filter:url(#drop-shadow-8);}.cls-13{filter:url(#drop-shadow-28);}.cls-14{filter:url(#drop-shadow-39);}.cls-15{filter:url(#drop-shadow-44);}.cls-16{filter:url(#drop-shadow-23);}.cls-17{filter:url(#drop-shadow-15);}.cls-18{filter:url(#drop-shadow-17);}.cls-19{filter:url(#drop-shadow-3);}.cls-20{filter:url(#drop-shadow-11);}.cls-21{filter:url(#drop-shadow-37);}.cls-22{filter:url(#drop-shadow-1);}.cls-23{filter:url(#drop-shadow-34);}.cls-24{filter:url(#drop-shadow-35);}.cls-25{filter:url(#drop-shadow-6);}.cls-26{filter:url(#drop-shadow-38);}.cls-27{filter:url(#drop-shadow-31);}.cls-28{filter:url(#drop-shadow-22);}.cls-29{filter:url(#drop-shadow-27);}.cls-30{filter:url(#drop-shadow-46);}.cls-31{filter:url(#drop-shadow-20);}.cls-32{filter:url(#drop-shadow-47);}.cls-33{fill:#e5e7e6;}.cls-34{filter:url(#drop-shadow-5);}.cls-35{fill:#fbfbfb;}.cls-36{filter:url(#drop-shadow-45);}.cls-37{filter:url(#drop-shadow-2);}.cls-38{filter:url(#drop-shadow-32);}.cls-39{filter:url(#drop-shadow-41);}.cls-40{clip-path:url(#clippath);}.cls-41{filter:url(#drop-shadow-40);}.cls-42{fill:none;}.cls-43{filter:url(#drop-shadow-16);}.cls-44{filter:url(#drop-shadow-18);}.cls-45{filter:url(#drop-shadow-9);}.cls-46{filter:url(#drop-shadow-13);}.cls-47{filter:url(#drop-shadow-26);}.cls-48{filter:url(#drop-shadow-48);}.cls-49{filter:url(#drop-shadow-36);}.cls-50{filter:url(#drop-shadow-19);}.cls-51{filter:url(#drop-shadow-29);}.cls-52{filter:url(#drop-shadow-42);}.cls-53{filter:url(#drop-shadow-12);}.cls-54{opacity:.25;}.cls-55{fill:#edefee;}.cls-56{fill:#fcfcfc;}.cls-57{filter:url(#drop-shadow-25);}</style><clipPath id="clippath"><rect class="cls-42" width="750" height="500"/></clipPath><filter id="drop-shadow-1" filterUnits="userSpaceOnUse"><feOffset dx="-3" dy="3"/><feGaussianBlur result="blur" stdDeviation="2"/><feFlood flood-color="#1a1851" flood-opacity=".2"/><feComposite in2="blur" operator="in"/><feComposite in="SourceGraphic"/></filter><filter id="drop-shadow-2" filterUnits="userSpaceOnUse"><feOffset dx="-4.56" dy="3"/><feGaussianBlur result="blur-2" stdDeviation="5"/><feFlood flood-color="#1a1851" flood-opacity=".2"/><feComposite in2="blur-2" operator="in"/><feComposite in="SourceGraphic"/></filter><filter id="drop-shadow-3" filterUnits="userSpaceOnUse"><feOffset dx="-4.56" dy="3"/><feGaussianBlur result="blur-3" stdDeviation="5"/><feFlood flood-color="#1a1851" flood-opacity=".2"/><feComposite in2="blur-3" operator="in"/><feComposite in="SourceGraphic"/></filter><filter id="drop-shadow-4" filterUnits="userSpaceOnUse"><feOffset dx="-4.56" dy="3"/><feGaussianBlur result="blur-4" stdDeviation="5"/><feFlood flood-color="#1a1851" flood-opacity=".2"/><feComposite in2="blur-4" operator="in"/><feComposite in="SourceGraphic"/></filter><filter id="drop-shadow-5" filterUnits="userSpaceOnUse"><feOffset dx="-4.56" dy="3"/><feGaussianBlur result="blur-5" stdDeviation="5"/><feFlood flood-color="#1a1851" flood-opacity=".2"/><feComposite in2="blur-5" operator="in"/><feComposite in="SourceGraphic"/></filter><filter id="drop-shadow-6" filterUnits="userSpaceOnUse"><feOffset dx="-8.53" dy="8.53"/><feGaussianBlur result="blur-6" stdDeviation="13.64"/><feFlood flood-color="#1a1851" flood-opacity=".3"/><feComposite in2="blur-6" operator="in"/><feComposite in="SourceGraphic"/></filter><filter id="drop-shadow-7" filterUnits="userSpaceOnUse"><feOffset dx="-4.56" dy="3"/><feGaussianBlur result="blur-7" stdDeviation="5"/><feFlood flood-color="#1a1851" flood-opacity=".2"/><feComposite in2="blur-7" operator="in"/><feComposite in="SourceGraphic"/></filter><filter id="drop-shadow-8" filterUnits="userSpaceOnUse"><feOffset dx="-4.56" dy="3"/><feGaussianBlur result="blur-8" stdDeviation="5"/><feFlood flood-color="#1a1851" flood-opacity=".2"/><feComposite in2="blur-8" operator="in"/><feComposite in="SourceGraphic"/></filter><filter id="drop-shadow-9" filterUnits="userSpaceOnUse"><feOffset dx="-4.56" dy="3"/><feGaussianBlur result="blur-9" stdDeviation="5"/><feFlood flood-color="#1a1851" flood-opacity=".2"/><feComposite in2="blur-9" operator="in"/><feComposite in="SourceGraphic"/></filter><filter id="drop-shadow-10" filterUnits="userSpaceOnUse"><feOffset dx="-4.56" dy="3"/><feGaussianBlur result="blur-10" stdDeviation="5"/><feFlood flood-color="#1a1851" flood-opacity=".2"/><feComposite in2="blur-10" operator="in"/><feComposite in="SourceGraphic"/></filter><filter id="drop-shadow-11" filterUnits="userSpaceOnUse"><feOffset dx="-4.56" dy="3"/><feGaussianBlur result="blur-11" stdDeviation="5"/><feFlood flood-color="#1a1851" flood-opacity=".2"/><feComposite in2="blur-11" operator="in"/><feComposite in="SourceGraphic"/></filter><filter id="drop-shadow-12" filterUnits="userSpaceOnUse"><feOffset dx="-4.56" dy="3"/><feGaussianBlur result="blur-12" stdDeviation="5"/><feFlood flood-color="#1a1851" flood-opacity=".2"/><feComposite in2="blur-12" operator="in"/><feComposite in="SourceGraphic"/></filter><filter id="drop-shadow-13" filterUnits="userSpaceOnUse"><feOffset dx="-3" dy="3"/><feGaussianBlur result="blur-13" stdDeviation="2"/><feFlood flood-color="#1a1851" flood-opacity=".2"/><feComposite in2="blur-13" operator="in"/><feComposite in="SourceGraphic"/></filter><filter id="drop-shadow-14" filterUnits="userSpaceOnUse"><feOffset dx="-4.56" dy="3"/><feGaussianBlur result="blur-14" stdDeviation="5"/><feFlood flood-color="#1a1851" flood-opacity=".2"/><feComposite in2="blur-14" operator="in"/><feComposite in="SourceGraphic"/></filter><filter id="drop-shadow-15" filterUnits="userSpaceOnUse"><feOffset dx="-4.56" dy="3"/><feGaussianBlur result="blur-15" stdDeviation="5"/><feFlood flood-color="#1a1851" flood-opacity=".2"/><feComposite in2="blur-15" operator="in"/><feComposite in="SourceGraphic"/></filter><filter id="drop-shadow-16" filterUnits="userSpaceOnUse"><feOffset dx="-3" dy="3"/><feGaussianBlur result="blur-16" stdDeviation="2"/><feFlood flood-color="#1a1851" flood-opacity=".2"/><feComposite in2="blur-16" operator="in"/><feComposite in="SourceGraphic"/></filter><filter id="drop-shadow-17" filterUnits="userSpaceOnUse"><feOffset dx="-4.56" dy="3"/><feGaussianBlur result="blur-17" stdDeviation="5"/><feFlood flood-color="#1a1851" flood-opacity=".2"/><feComposite in2="blur-17" operator="in"/><feComposite in="SourceGraphic"/></filter><filter id="drop-shadow-18" filterUnits="userSpaceOnUse"><feOffset dx="-4.56" dy="3"/><feGaussianBlur result="blur-18" stdDeviation="5"/><feFlood flood-color="#1a1851" flood-opacity=".2"/><feComposite in2="blur-18" operator="in"/><feComposite in="SourceGraphic"/></filter><filter id="drop-shadow-19" filterUnits="userSpaceOnUse"><feOffset dx="-4.56" dy="3"/><feGaussianBlur result="blur-19" stdDeviation="5"/><feFlood flood-color="#1a1851" flood-opacity=".2"/><feComposite in2="blur-19" operator="in"/><feComposite in="SourceGraphic"/></filter><filter id="drop-shadow-20" filterUnits="userSpaceOnUse"><feOffset dx="-3" dy="3"/><feGaussianBlur result="blur-20" stdDeviation="2"/><feFlood flood-color="#1a1851" flood-opacity=".2"/><feComposite in2="blur-20" operator="in"/><feComposite in="SourceGraphic"/></filter><filter id="drop-shadow-21" filterUnits="userSpaceOnUse"><feOffset dx="-4.56" dy="6"/><feGaussianBlur result="blur-21" stdDeviation="5"/><feFlood flood-color="#1a1851" flood-opacity=".2"/><feComposite in2="blur-21" operator="in"/><feComposite in="SourceGraphic"/></filter><filter id="drop-shadow-22" filterUnits="userSpaceOnUse"><feOffset dx="-3" dy="3"/><feGaussianBlur result="blur-22" stdDeviation="2"/><feFlood flood-color="#1a1851" flood-opacity=".2"/><feComposite in2="blur-22" operator="in"/><feComposite in="SourceGraphic"/></filter><filter id="drop-shadow-23" filterUnits="userSpaceOnUse"><feOffset dx="-4.56" dy="6"/><feGaussianBlur result="blur-23" stdDeviation="5"/><feFlood flood-color="#1a1851" flood-opacity=".2"/><feComposite in2="blur-23" operator="in"/><feComposite in="SourceGraphic"/></filter><filter id="drop-shadow-24" filterUnits="userSpaceOnUse"><feOffset dx="-8.53" dy="8.53"/><feGaussianBlur result="blur-24" stdDeviation="13.64"/><feFlood flood-color="#1a1851" flood-opacity=".3"/><feComposite in2="blur-24" operator="in"/><feComposite in="SourceGraphic"/></filter><filter id="drop-shadow-25" filterUnits="userSpaceOnUse"><feOffset dx="-4.56" dy="3"/><feGaussianBlur result="blur-25" stdDeviation="5"/><feFlood flood-color="#1a1851" flood-opacity=".2"/><feComposite in2="blur-25" operator="in"/><feComposite in="SourceGraphic"/></filter><filter id="drop-shadow-26" filterUnits="userSpaceOnUse"><feOffset dx="-4.56" dy="3"/><feGaussianBlur result="blur-26" stdDeviation="5"/><feFlood flood-color="#1a1851" flood-opacity=".2"/><feComposite in2="blur-26" operator="in"/><feComposite in="SourceGraphic"/></filter><filter id="drop-shadow-27" filterUnits="userSpaceOnUse"><feOffset dx="-3" dy="3"/><feGaussianBlur result="blur-27" stdDeviation="2"/><feFlood flood-color="#1a1851" flood-opacity=".2"/><feComposite in2="blur-27" operator="in"/><feComposite in="SourceGraphic"/></filter><filter id="drop-shadow-28" filterUnits="userSpaceOnUse"><feOffset dx="-4.56" dy="3"/><feGaussianBlur result="blur-28" stdDeviation="5"/><feFlood flood-color="#1a1851" flood-opacity=".2"/><feComposite in2="blur-28" operator="in"/><feComposite in="SourceGraphic"/></filter><filter id="drop-shadow-29" filterUnits="userSpaceOnUse"><feOffset dx="-4.56" dy="3"/><feGaussianBlur result="blur-29" stdDeviation="5"/><feFlood flood-color="#1a1851" flood-opacity=".2"/><feComposite in2="blur-29" operator="in"/><feComposite in="SourceGraphic"/></filter><filter id="drop-shadow-30" filterUnits="userSpaceOnUse"><feOffset dx="-4.56" dy="3"/><feGaussianBlur result="blur-30" stdDeviation="5"/><feFlood flood-color="#1a1851" flood-opacity=".2"/><feComposite in2="blur-30" operator="in"/><feComposite in="SourceGraphic"/></filter><filter id="drop-shadow-31" filterUnits="userSpaceOnUse"><feOffset dx="-4.56" dy="3"/><feGaussianBlur result="blur-31" stdDeviation="5"/><feFlood flood-color="#1a1851" flood-opacity=".2"/><feComposite in2="blur-31" operator="in"/><feComposite in="SourceGraphic"/></filter><filter id="drop-shadow-32" filterUnits="userSpaceOnUse"><feOffset dx="-8.53" dy="8.53"/><feGaussianBlur result="blur-32" stdDeviation="13.64"/><feFlood flood-color="#1a1851" flood-opacity=".3"/><feComposite in2="blur-32" operator="in"/><feComposite in="SourceGraphic"/></filter><filter id="drop-shadow-33" filterUnits="userSpaceOnUse"><feOffset dx="-4.56" dy="3"/><feGaussianBlur result="blur-33" stdDeviation="5"/><feFlood flood-color="#1a1851" flood-opacity=".2"/><feComposite in2="blur-33" operator="in"/><feComposite in="SourceGraphic"/></filter><filter id="drop-shadow-34" filterUnits="userSpaceOnUse"><feOffset dx="-4.56" dy="3"/><feGaussianBlur result="blur-34" stdDeviation="5"/><feFlood flood-color="#1a1851" flood-opacity=".2"/><feComposite in2="blur-34" operator="in"/><feComposite in="SourceGraphic"/></filter><filter id="drop-shadow-35" filterUnits="userSpaceOnUse"><feOffset dx="-4.56" dy="3"/><feGaussianBlur result="blur-35" stdDeviation="5"/><feFlood flood-color="#1a1851" flood-opacity=".2"/><feComposite in2="blur-35" operator="in"/><feComposite in="SourceGraphic"/></filter><filter id="drop-shadow-36" filterUnits="userSpaceOnUse"><feOffset dx="-4.56" dy="3"/><feGaussianBlur result="blur-36" stdDeviation="5"/><feFlood flood-color="#1a1851" flood-opacity=".2"/><feComposite in2="blur-36" operator="in"/><feComposite in="SourceGraphic"/></filter><filter id="drop-shadow-37" filterUnits="userSpaceOnUse"><feOffset dx="-4.56" dy="3"/><feGaussianBlur result="blur-37" stdDeviation="5"/><feFlood flood-color="#1a1851" flood-opacity=".2"/><feComposite in2="blur-37" operator="in"/><feComposite in="SourceGraphic"/></filter><filter id="drop-shadow-38" filterUnits="userSpaceOnUse"><feOffset dx="-4.56" dy="3"/><feGaussianBlur result="blur-38" stdDeviation="5"/><feFlood flood-color="#1a1851" flood-opacity=".2"/><feComposite in2="blur-38" operator="in"/><feComposite in="SourceGraphic"/></filter><filter id="drop-shadow-39" filterUnits="userSpaceOnUse"><feOffset dx="-4.56" dy="3"/><feGaussianBlur result="blur-39" stdDeviation="5"/><feFlood flood-color="#1a1851" flood-opacity=".2"/><feComposite in2="blur-39" operator="in"/><feComposite in="SourceGraphic"/></filter><filter id="drop-shadow-40" filterUnits="userSpaceOnUse"><feOffset dx="-3" dy="3"/><feGaussianBlur result="blur-40" stdDeviation="2"/><feFlood flood-color="#1a1851" flood-opacity=".2"/><feComposite in2="blur-40" operator="in"/><feComposite in="SourceGraphic"/></filter><filter id="drop-shadow-41" filterUnits="userSpaceOnUse"><feOffset dx="-4.56" dy="3"/><feGaussianBlur result="blur-41" stdDeviation="5"/><feFlood flood-color="#1a1851" flood-opacity=".2"/><feComposite in2="blur-41" operator="in"/><feComposite in="SourceGraphic"/></filter><filter id="drop-shadow-42" filterUnits="userSpaceOnUse"><feOffset dx="-3" dy="3"/><feGaussianBlur result="blur-42" stdDeviation="2"/><feFlood flood-color="#1a1851" flood-opacity=".2"/><feComposite in2="blur-42" operator="in"/><feComposite in="SourceGraphic"/></filter><filter id="drop-shadow-43" filterUnits="userSpaceOnUse"><feOffset dx="-4.56" dy="3"/><feGaussianBlur result="blur-43" stdDeviation="5"/><feFlood flood-color="#1a1851" flood-opacity=".2"/><feComposite in2="blur-43" operator="in"/><feComposite in="SourceGraphic"/></filter><filter id="drop-shadow-44" filterUnits="userSpaceOnUse"><feOffset dx="-4.56" dy="3"/><feGaussianBlur result="blur-44" stdDeviation="5"/><feFlood flood-color="#1a1851" flood-opacity=".2"/><feComposite in2="blur-44" operator="in"/><feComposite in="SourceGraphic"/></filter><filter id="drop-shadow-45" filterUnits="userSpaceOnUse"><feOffset dx="-4.56" dy="3"/><feGaussianBlur result="blur-45" stdDeviation="5"/><feFlood flood-color="#1a1851" flood-opacity=".2"/><feComposite in2="blur-45" operator="in"/><feComposite in="SourceGraphic"/></filter><filter id="drop-shadow-46" filterUnits="userSpaceOnUse"><feOffset dx="-3" dy="3"/><feGaussianBlur result="blur-46" stdDeviation="2"/><feFlood flood-color="#1a1851" flood-opacity=".2"/><feComposite in2="blur-46" operator="in"/><feComposite in="SourceGraphic"/></filter><filter id="drop-shadow-47" filterUnits="userSpaceOnUse"><feOffset dx="-3" dy="3"/><feGaussianBlur result="blur-47" stdDeviation="2"/><feFlood flood-color="#1a1851" flood-opacity=".2"/><feComposite in2="blur-47" operator="in"/><feComposite in="SourceGraphic"/></filter><filter id="drop-shadow-48" filterUnits="userSpaceOnUse"><feOffset dx="-4.56" dy="6"/><feGaussianBlur result="blur-48" stdDeviation="5"/><feFlood flood-color="#1a1851" flood-opacity=".2"/><feComposite in2="blur-48" operator="in"/><feComposite in="SourceGraphic"/></filter><filter id="drop-shadow-49" filterUnits="userSpaceOnUse"><feOffset dx="-4.56" dy="6"/><feGaussianBlur result="blur-49" stdDeviation="5"/><feFlood flood-color="#1a1851" flood-opacity=".2"/><feComposite in2="blur-49" operator="in"/><feComposite in="SourceGraphic"/></filter></defs><rect class="cls-56" width="750" height="500"/><g class="cls-54"><g class="cls-40"><g><rect class="cls-8" x="715.24" y="377.32" width="51.87" height="51.87" rx="5.85" ry="5.85" transform="translate(1482.35 806.51) rotate(180)"/><rect class="cls-55" x="614.95" y="109.73" width="51.87" height="51.87" rx="5.85" ry="5.85" transform="translate(1281.78 271.33) rotate(180)"/><path class="cls-8" d="M635.46,232.82h54.54c4.39,0,7.95,3.56,7.95,7.95v54.54c0,4.39-3.56,7.95-7.95,7.95h-54.54c-4.39,0-7.95-3.56-7.95-7.95v-54.54c0-4.39,3.56-7.95,7.95-7.95Z" transform="translate(1325.45 536.08) rotate(180)"/><path class="cls-8" d="M725.82,255.65h54.54c4.39,0,7.95,3.56,7.95,7.95v54.54c0,4.39-3.56,7.95-7.95,7.95h-54.54c-4.39,0-7.95-3.56-7.95-7.95v-54.54c0-4.39,3.56-7.95,7.95-7.95Z" transform="translate(1506.17 581.73) rotate(180)"/><path class="cls-8" d="M707.34,5.95h54.54c4.39,0,7.95,3.56,7.95,7.95v54.54c0,4.39-3.56,7.95-7.95,7.95h-54.54c-4.39,0-7.95-3.56-7.95-7.95V13.89c0-4.39,3.56-7.95,7.95-7.95Z" transform="translate(1469.23 82.32) rotate(180)"/><rect class="cls-8" x="384.31" y="368.04" width="70.43" height="70.43" rx="7.95" ry="7.95" transform="translate(839.06 806.51) rotate(180)"/><rect class="cls-55" x="-35.22" y="381.31" width="70.43" height="70.43" rx="7.95" ry="7.95" transform="translate(0 833.05) rotate(180)"/><path class="cls-55" d="M643.61,518.64h-75.97c-6.55,0-11.88-5.33-11.88-11.88v-75.97c0-6.55,5.33-11.88,11.88-11.88h75.97c6.55,0,11.88,5.33,11.88,11.88v75.97c0,6.55-5.33,11.88-11.88,11.88Zm-75.97-98.11c-5.66,0-10.26,4.6-10.26,10.26v75.97c0,5.66,4.6,10.26,10.26,10.26h75.97c5.66,0,10.26-4.6,10.26-10.26v-75.97c0-5.66-4.6-10.26-10.26-10.26h-75.97Z"/><path class="cls-8" d="M315.8,539.96h-75.97c-6.55,0-11.88-5.33-11.88-11.88v-75.97c0-6.55,5.33-11.88,11.88-11.88h75.97c6.55,0,11.88,5.33,11.88,11.88v75.97c0,6.55-5.33,11.88-11.88,11.88Zm-75.97-98.11c-5.66,0-10.26,4.6-10.26,10.26v75.97c0,5.66,4.6,10.26,10.26,10.26h75.97c5.66,0,10.26-4.6,10.26-10.26v-75.97c0-5.66-4.6-10.26-10.26-10.26h-75.97Z"/><path class="cls-8" d="M613.76,390.51h-48.47c-4.34,0-7.87-3.53-7.87-7.87v-48.47c0-4.34,3.53-7.87,7.87-7.87h48.47c4.34,0,7.87,3.53,7.87,7.87v48.47c0,4.34-3.53,7.87-7.87,7.87Zm-48.47-62.6c-3.45,0-6.26,2.81-6.26,6.26v48.47c0,3.45,2.81,6.26,6.26,6.26h48.47c3.45,0,6.26-2.81,6.26-6.26v-48.47c0-3.45-2.81-6.26-6.26-6.26h-48.47Z"/><path class="cls-8" d="M710.8,247.22h-48.47c-4.34,0-7.87-3.53-7.87-7.87v-48.47c0-4.34,3.53-7.87,7.87-7.87h48.47c4.34,0,7.87,3.53,7.87,7.87v48.47c0,4.34-3.53,7.87-7.87,7.87Zm-48.47-62.6c-3.45,0-6.26,2.81-6.26,6.26v48.47c0,3.45,2.81,6.26,6.26,6.26h48.47c3.45,0,6.26-2.81,6.26-6.26v-48.47c0-3.45-2.81-6.26-6.26-6.26h-48.47Z"/><path class="cls-8" d="M678.92,30.23h-48.47c-4.34,0-7.87-3.53-7.87-7.87V-26.11c0-4.34,3.53-7.87,7.87-7.87h48.47c4.34,0,7.87,3.53,7.87,7.87V22.36c0,4.34-3.53,7.87-7.87,7.87Zm-48.47-62.6c-3.45,0-6.26,2.81-6.26,6.26V22.36c0,3.45,2.81,6.26,6.26,6.26h48.47c3.45,0,6.26-2.81,6.26-6.26V-26.11c0-3.45-2.81-6.26-6.26-6.26h-48.47Z"/><path class="cls-55" d="M310.47,330.04H109.14c-16.63,0-30.15-13.53-30.15-30.15V98.55c0-16.63,13.53-30.15,30.15-30.15h201.33c16.63,0,30.15,13.53,30.15,30.15v201.33c0,16.63-13.53,30.15-30.15,30.15ZM109.14,70.02c-15.73,0-28.53,12.8-28.53,28.53v201.33c0,15.73,12.8,28.54,28.53,28.54h201.33c15.73,0,28.53-12.8,28.53-28.54V98.55c0-15.73-12.8-28.53-28.53-28.53H109.14Z"/><path class="cls-55" d="M577.66,87.64h-201.33c-16.63,0-30.15-13.53-30.15-30.15V-143.84c0-16.63,13.53-30.15,30.15-30.15h201.33c16.63,0,30.15,13.53,30.15,30.15V57.49c0,16.63-13.53,30.15-30.15,30.15ZM376.33-172.38c-15.73,0-28.53,12.8-28.53,28.53V57.49c0,15.73,12.8,28.53,28.53,28.53h201.33c15.73,0,28.54-12.8,28.54-28.53V-143.84c0-15.73-12.8-28.53-28.54-28.53h-201.33Z"/><path class="cls-8" d="M728.26,517.31h-48.47c-4.34,0-7.87-3.53-7.87-7.87v-48.47c0-4.34,3.53-7.87,7.87-7.87h48.47c4.34,0,7.87,3.53,7.87,7.87v48.47c0,4.34-3.53,7.87-7.87,7.87Zm-48.47-62.6c-3.45,0-6.26,2.81-6.26,6.26v48.47c0,3.45,2.81,6.26,6.26,6.26h48.47c3.45,0,6.26-2.81,6.26-6.26v-48.47c0-3.45-2.81-6.26-6.26-6.26h-48.47Z"/><path class="cls-8" d="M471.66,507.66h-12.73c-1.47,0-2.66-1.2-2.66-2.66v-12.73c0-1.47,1.2-2.66,2.66-2.66h12.73c1.47,0,2.66,1.2,2.66,2.66v12.73c0,1.47-1.2,2.66-2.66,2.66Zm-12.73-16.44c-.58,0-1.05,.47-1.05,1.05v12.73c0,.58,.47,1.05,1.05,1.05h12.73c.58,0,1.05-.47,1.05-1.05v-12.73c0-.58-.47-1.05-1.05-1.05h-12.73Z"/><rect class="cls-8" x="431.3" y="479.99" width="16.44" height="16.44" rx="1.86" ry="1.86" transform="translate(879.04 976.42) rotate(180)"/><rect class="cls-55" x="627.81" y="309.18" width="16.44" height="16.44" rx="1.86" ry="1.86" transform="translate(1272.06 634.8) rotate(-180)"/><rect class="cls-55" x="565.85" y="253.43" width="16.44" height="16.44" rx="1.86" ry="1.86" transform="translate(1148.14 523.29) rotate(180)"/><rect class="cls-8" x="602.42" y="427.51" width="16.44" height="16.44" rx="1.86" ry="1.86" transform="translate(1221.28 871.47) rotate(180)"/><rect class="cls-8" x="555.21" y="265.98" width="8.42" height="8.42" rx=".95" ry=".95" transform="translate(1118.83 540.37) rotate(180)"/><rect class="cls-8" x="586.99" y="439.58" width="8.42" height="8.42" rx=".95" ry=".95" transform="translate(1182.39 887.58) rotate(180)"/><rect class="cls-8" x="541.98" y="491.59" width="8.42" height="8.42" rx=".95" ry=".95" transform="translate(1092.37 991.6) rotate(180)"/><rect class="cls-8" x="636.68" y="210.91" width="8.42" height="8.42" rx=".95" ry=".95" transform="translate(1281.78 430.23) rotate(180)"/><rect class="cls-8" x="465.29" y="465.05" width="33.59" height="33.59" rx="3.79" ry="3.79" transform="translate(964.17 963.68) rotate(180)"/><path class="cls-8" d="M478.25,351.74h-12.73c-1.47,0-2.66-1.2-2.66-2.66v-12.73c0-1.47,1.2-2.66,2.66-2.66h12.73c1.47,0,2.66,1.2,2.66,2.66v12.73c0,1.47-1.2,2.66-2.66,2.66Zm-12.73-16.44c-.58,0-1.05,.47-1.05,1.05v12.73c0,.58,.47,1.05,1.05,1.05h12.73c.58,0,1.05-.47,1.05-1.05v-12.73c0-.58-.47-1.05-1.05-1.05h-12.73Z"/><rect class="cls-8" x="455.44" y="263.53" width="16.44" height="16.44" rx="1.86" ry="1.86" transform="translate(927.33 543.5) rotate(180)"/><rect class="cls-8" x="662.73" y="41.77" width="16.44" height="16.44" rx="1.86" ry="1.86" transform="translate(1341.89 99.98) rotate(180)"/><rect class="cls-8" x="471.88" y="309.13" width="33.59" height="33.59" rx="3.79" ry="3.79" transform="translate(977.34 651.85) rotate(180)"/></g><g><g><rect class="cls-8" x="-33.79" y="68.02" width="51.87" height="51.87" rx="5.85" ry="5.85"/><rect class="cls-8" x="56.59" y="200.1" width="70.43" height="70.43" rx="7.95" ry="7.95"/><path class="cls-8" d="M-25.81,180.56H28.72c4.39,0,7.95,3.56,7.95,7.95v54.54c0,4.39-3.56,7.95-7.95,7.95H-25.81c-4.39,0-7.95-3.56-7.95-7.95v-54.54c0-4.39,3.56-7.95,7.95-7.95Z"/><path class="cls-8" d="M186.89,84.45H110.93c-6.55,0-11.88-5.33-11.88-11.88V-3.4c0-6.55,5.33-11.88,11.88-11.88h75.97c6.55,0,11.88,5.33,11.88,11.88V72.57c0,6.55-5.33,11.88-11.88,11.88ZM110.93-13.66c-5.66,0-10.26,4.6-10.26,10.26V72.57c0,5.66,4.6,10.26,10.26,10.26h75.97c5.66,0,10.26-4.6,10.26-10.26V-3.4c0-5.66-4.6-10.26-10.26-10.26H110.93Z"/><path class="cls-8" d="M189.24,177.06h-48.47c-4.34,0-7.87-3.53-7.87-7.87v-48.47c0-4.34,3.53-7.87,7.87-7.87h48.47c4.34,0,7.87,3.53,7.87,7.87v48.47c0,4.34-3.53,7.87-7.87,7.87Zm-48.47-62.6c-3.45,0-6.26,2.81-6.26,6.26v48.47c0,3.45,2.81,6.26,6.26,6.26h48.47c3.45,0,6.26-2.81,6.26-6.26v-48.47c0-3.45-2.81-6.26-6.26-6.26h-48.47Z"/><path class="cls-8" d="M50.51,335.37H2.04c-4.34,0-7.87-3.53-7.87-7.87v-48.47c0-4.34,3.53-7.87,7.87-7.87H50.51c4.34,0,7.87,3.53,7.87,7.87v48.47c0,4.34-3.53,7.87-7.87,7.87ZM2.04,272.77c-3.45,0-6.26,2.81-6.26,6.26v48.47c0,3.45,2.81,6.26,6.26,6.26H50.51c3.45,0,6.26-2.81,6.26-6.26v-48.47c0-3.45-2.81-6.26-6.26-6.26H2.04Z"/><path class="cls-8" d="M71.78,425.47H23.31c-4.34,0-7.87-3.53-7.87-7.87v-48.47c0-4.34,3.53-7.87,7.87-7.87h48.47c4.34,0,7.87,3.53,7.87,7.87v48.47c0,4.34-3.53,7.87-7.87,7.87Zm-48.47-62.6c-3.45,0-6.26,2.81-6.26,6.26v48.47c0,3.45,2.81,6.26,6.26,6.26h48.47c3.45,0,6.26-2.81,6.26-6.26v-48.47c0-3.45-2.81-6.26-6.26-6.26H23.31Z"/><path class="cls-8" d="M295.61,13.76h-12.73c-1.47,0-2.66-1.2-2.66-2.66V-1.64c0-1.47,1.2-2.66,2.66-2.66h12.73c1.47,0,2.66,1.2,2.66,2.66V11.09c0,1.47-1.2,2.66-2.66,2.66Zm-12.73-16.44c-.58,0-1.05,.47-1.05,1.05V11.09c0,.58,.47,1.05,1.05,1.05h12.73c.58,0,1.05-.47,1.05-1.05V-1.64c0-.58-.47-1.05-1.05-1.05h-12.73Z"/><rect class="cls-8" x="306.8" y="6.93" width="16.44" height="16.44" rx="1.86" ry="1.86"/><rect class="cls-8" x="110.29" y="177.74" width="16.44" height="16.44" rx="1.86" ry="1.86"/><rect class="cls-55" x="172.25" y="233.49" width="16.44" height="16.44" rx="1.86" ry="1.86"/><rect class="cls-8" x="135.68" y="59.4" width="16.44" height="16.44" rx="1.86" ry="1.86"/><rect class="cls-8" x="190.91" y="228.96" width="8.42" height="8.42" rx=".95" ry=".95"/><rect class="cls-8" x="159.13" y="55.36" width="8.42" height="8.42" rx=".95" ry=".95"/><rect class="cls-8" x="204.15" y="3.35" width="8.42" height="8.42" rx=".95" ry=".95"/><rect class="cls-8" x="109.44" y="284.03" width="8.42" height="8.42" rx=".95" ry=".95"/><rect class="cls-8" x="255.66" y="4.72" width="33.59" height="33.59" rx="3.79" ry="3.79"/><path class="cls-8" d="M289.02,169.67h-12.73c-1.47,0-2.66-1.2-2.66-2.66v-12.73c0-1.47,1.2-2.66,2.66-2.66h12.73c1.47,0,2.66,1.2,2.66,2.66v12.73c0,1.47-1.2,2.66-2.66,2.66Zm-12.73-16.44c-.58,0-1.05,.47-1.05,1.05v12.73c0,.58,.47,1.05,1.05,1.05h12.73c.58,0,1.05-.47,1.05-1.05v-12.73c0-.58-.47-1.05-1.05-1.05h-12.73Z"/><rect class="cls-55" x="282.65" y="223.38" width="16.44" height="16.44" rx="1.86" ry="1.86"/><rect class="cls-8" x="249.07" y="160.64" width="33.59" height="33.59" rx="3.79" ry="3.79"/></g><g class="cls-22"><rect class="cls-55" x="134.14" y="210.68" width="20.92" height="20.92" rx="3.28" ry="3.28"/><path class="cls-35" d="M151.78,210.68h-14.35c-1.81,0-3.28,1.47-3.28,3.28v14.35c0,1.81,1.47,3.28,3.28,3.28h14.35c1.81,0,3.28-1.47,3.28-3.28v-14.35c0-1.81-1.47-3.28-3.28-3.28Zm2.86,17.64c0,1.58-1.28,2.86-2.86,2.86h-14.35c-1.58,0-2.86-1.28-2.86-2.86v-14.35c0-1.58,1.28-2.86,2.86-2.86h14.35c1.58,0,2.86,1.28,2.86,2.86v14.35Z"/></g><g class="cls-37"><rect class="cls-33" x="170.38" y="53.82" width="71.3" height="71.3" rx="3.28" ry="3.28"/><path class="cls-35" d="M238.39,53.82h-64.73c-1.81,0-3.28,1.47-3.28,3.28V121.84c0,1.81,1.47,3.28,3.28,3.28h64.73c1.81,0,3.28-1.47,3.28-3.28V57.11c0-1.81-1.47-3.28-3.28-3.28Zm2.86,68.02c0,1.58-1.28,2.86-2.86,2.86h-64.73c-1.58,0-2.86-1.28-2.86-2.86V57.11c0-1.58,1.28-2.86,2.86-2.86h64.73c1.58,0,2.86,1.28,2.86,2.86V121.84Z"/></g><g class="cls-19"><rect class="cls-33" x="55.8" y="184.05" width="51.26" height="51.26" rx="3.28" ry="3.28"/><path class="cls-35" d="M107.06,232.03v-44.69c0-1.81-1.47-3.28-3.28-3.28H59.08c-1.81,0-3.28,1.47-3.28,3.28v44.69c0,1.81,1.47,3.28,3.28,3.28h44.69c1.81,0,3.28-1.47,3.28-3.28Zm-50.84,0v-44.69c0-1.58,1.28-2.86,2.86-2.86h44.69c1.58,0,2.86,1.28,2.86,2.86v44.69c0,1.58-1.28,2.86-2.86,2.86H59.08c-1.58,0-2.86-1.28-2.86-2.86Z"/></g><g class="cls-11"><rect class="cls-33" x="-6.2" y="109.57" width="101.05" height="101.05" rx="3.28" ry="3.28"/><path class="cls-35" d="M91.56,109.57H-2.92c-1.81,0-3.28,1.47-3.28,3.28v94.48c0,1.81,1.47,3.28,3.28,3.28H91.56c1.81,0,3.28-1.47,3.28-3.28V112.85c0-1.81-1.47-3.28-3.28-3.28Zm2.86,97.77c0,1.58-1.28,2.86-2.86,2.86H-2.92c-1.58,0-2.86-1.28-2.86-2.86V112.85c0-1.58,1.28-2.86,2.86-2.86H91.56c1.58,0,2.86,1.28,2.86,2.86v94.48Z"/></g><g class="cls-34"><rect class="cls-33" x="104.27" y="96.87" width="56.68" height="56.68" rx="3.28" ry="3.28"/><path class="cls-35" d="M157.67,96.87h-50.11c-1.81,0-3.28,1.47-3.28,3.28v50.11c0,1.81,1.47,3.28,3.28,3.28h50.11c1.81,0,3.28-1.47,3.28-3.28v-50.11c0-1.81-1.47-3.28-3.28-3.28Zm2.86,53.4c0,1.58-1.28,2.86-2.86,2.86h-50.11c-1.58,0-2.86-1.28-2.86-2.86v-50.11c0-1.58,1.28-2.86,2.86-2.86h50.11c1.58,0,2.86,1.28,2.86,2.86v50.11Z"/></g><g class="cls-25"><rect class="cls-33" x="17.47" y="7.84" width="122.75" height="122.75" rx="3.28" ry="3.28"/><path class="cls-35" d="M136.94,7.84H20.76c-1.81,0-3.28,1.47-3.28,3.28V127.3c0,1.81,1.47,3.28,3.28,3.28h116.18c1.81,0,3.28-1.47,3.28-3.28V11.12c0-1.81-1.47-3.28-3.28-3.28Zm2.86,119.46c0,1.58-1.28,2.86-2.86,2.86H20.76c-1.58,0-2.86-1.28-2.86-2.86V11.12c0-1.58,1.28-2.86,2.86-2.86h116.18c1.58,0,2.86,1.28,2.86,2.86V127.3Z"/></g><g class="cls-4"><rect class="cls-55" x="-16.35" y="259.08" width="38.67" height="38.67" rx="3.28" ry="3.28"/><path class="cls-35" d="M19.04,259.08H-13.06c-1.81,0-3.28,1.47-3.28,3.28v32.1c0,1.81,1.47,3.28,3.28,3.28H19.04c1.81,0,3.28-1.47,3.28-3.28v-32.1c0-1.81-1.47-3.28-3.28-3.28Zm2.86,35.38c0,1.58-1.28,2.86-2.86,2.86H-13.06c-1.58,0-2.86-1.28-2.86-2.86v-32.1c0-1.58,1.28-2.86,2.86-2.86H19.04c1.58,0,2.86,1.28,2.86,2.86v32.1Z"/></g><g class="cls-12"><rect class="cls-33" x="-6.2" y="214.15" width="25.29" height="25.29" rx="3.28" ry="3.28"/><path class="cls-35" d="M15.8,214.15H-2.92c-1.81,0-3.28,1.47-3.28,3.28v18.72c0,1.81,1.47,3.28,3.28,3.28H15.8c1.81,0,3.28-1.47,3.28-3.28v-18.72c0-1.81-1.47-3.28-3.28-3.28Zm2.86,22.01c0,1.58-1.28,2.86-2.86,2.86H-2.92c-1.58,0-2.86-1.28-2.86-2.86v-18.72c0-1.58,1.28-2.86,2.86-2.86H15.8c1.58,0,2.86,1.28,2.86,2.86v18.72Z"/></g><g class="cls-45"><rect class="cls-55" x="3.07" y="309.12" width="40.56" height="40.56" rx="3.28" ry="3.28"/><path class="cls-35" d="M40.35,309.12H6.36c-1.81,0-3.28,1.47-3.28,3.28v33.99c0,1.81,1.47,3.28,3.28,3.28H40.35c1.81,0,3.28-1.47,3.28-3.28v-33.99c0-1.81-1.47-3.28-3.28-3.28Zm2.86,37.28c0,1.58-1.28,2.86-2.86,2.86H6.36c-1.58,0-2.86-1.28-2.86-2.86v-33.99c0-1.58,1.28-2.86,2.86-2.86H40.35c1.58,0,2.86,1.28,2.86,2.86v33.99Z"/></g><g class="cls-2"><rect class="cls-55" x="386.56" y="6.07" width="11.62" height="11.62" rx="3.28" ry="3.28"/><path class="cls-35" d="M389.84,17.69h5.06c1.81,0,3.28-1.47,3.28-3.28v-5.06c0-1.81-1.47-3.28-3.28-3.28h-5.06c-1.81,0-3.28,1.47-3.28,3.28v5.06c0,1.81,1.47,3.28,3.28,3.28Zm-2.86-8.34c0-1.58,1.28-2.86,2.86-2.86h5.06c1.58,0,2.86,1.28,2.86,2.86v5.06c0,1.58-1.28,2.86-2.86,2.86h-5.06c-1.58,0-2.86-1.28-2.86-2.86v-5.06Z"/></g><g class="cls-20"><rect class="cls-55" x="289.45" y="86.41" width="11.62" height="11.62" rx="3.28" ry="3.28"/><path class="cls-35" d="M292.73,98.03h5.06c1.81,0,3.28-1.47,3.28-3.28v-5.06c0-1.81-1.47-3.28-3.28-3.28h-5.06c-1.81,0-3.28,1.47-3.28,3.28v5.06c0,1.81,1.47,3.28,3.28,3.28Zm-2.86-8.34c0-1.58,1.28-2.86,2.86-2.86h5.06c1.58,0,2.86,1.28,2.86,2.86v5.06c0,1.58-1.28,2.86-2.86,2.86h-5.06c-1.58,0-2.86-1.28-2.86-2.86v-5.06Z"/></g><g class="cls-53"><rect class="cls-33" x="332.05" y="-13.48" width="49.54" height="49.54" rx="3.28" ry="3.28"/><path class="cls-35" d="M335.34,36.06h42.97c1.81,0,3.28-1.47,3.28-3.28V-10.2c0-1.81-1.47-3.28-3.28-3.28h-42.97c-1.81,0-3.28,1.47-3.28,3.28V32.77c0,1.81,1.47,3.28,3.28,3.28Zm-2.86-46.25c0-1.58,1.28-2.86,2.86-2.86h42.97c1.58,0,2.86,1.28,2.86,2.86V32.77c0,1.58-1.28,2.86-2.86,2.86h-42.97c-1.58,0-2.86-1.28-2.86-2.86V-10.2Z"/></g><g class="cls-46"><rect class="cls-55" x="206.16" y="-24.12" width="34.13" height="34.13" rx="3.28" ry="3.28"/><path class="cls-35" d="M209.44,10.01h27.56c1.81,0,3.28-1.47,3.28-3.28V-20.83c0-1.81-1.47-3.28-3.28-3.28h-27.56c-1.81,0-3.28,1.47-3.28,3.28V6.73c0,1.81,1.47,3.28,3.28,3.28Zm-2.86-30.84c0-1.58,1.28-2.86,2.86-2.86h27.56c1.58,0,2.86,1.28,2.86,2.86V6.73c0,1.58-1.28,2.86-2.86,2.86h-27.56c-1.58,0-2.86-1.28-2.86-2.86V-20.83Z"/></g><g class="cls-3"><rect class="cls-55" x="165.94" y="155.53" width="54.39" height="54.39" rx="3.28" ry="3.28"/><path class="cls-35" d="M217.05,155.53h-47.82c-1.81,0-3.28,1.47-3.28,3.28v47.82c0,1.81,1.47,3.28,3.28,3.28h47.82c1.81,0,3.28-1.47,3.28-3.28v-47.82c0-1.81-1.47-3.28-3.28-3.28Zm2.86,51.11c0,1.58-1.28,2.86-2.86,2.86h-47.82c-1.58,0-2.86-1.28-2.86-2.86v-47.82c0-1.58,1.28-2.86,2.86-2.86h47.82c1.58,0,2.86,1.28,2.86,2.86v47.82Z"/></g><g class="cls-17"><rect class="cls-55" x="114.34" y="-24.54" width="54.39" height="54.39" rx="3.28" ry="3.28"/><path class="cls-35" d="M165.45-24.54h-47.82c-1.81,0-3.28,1.47-3.28,3.28V26.56c0,1.81,1.47,3.28,3.28,3.28h47.82c1.81,0,3.28-1.47,3.28-3.28V-21.26c0-1.81-1.47-3.28-3.28-3.28Zm2.86,51.11c0,1.58-1.28,2.86-2.86,2.86h-47.82c-1.58,0-2.86-1.28-2.86-2.86V-21.26c0-1.58,1.28-2.86,2.86-2.86h47.82c1.58,0,2.86,1.28,2.86,2.86V26.56Z"/></g><g class="cls-43"><rect class="cls-33" x="304.56" y="26.74" width="21.56" height="21.56" rx="3.28" ry="3.28"/><path class="cls-35" d="M322.84,26.74h-14.99c-1.81,0-3.28,1.47-3.28,3.28v14.99c0,1.81,1.47,3.28,3.28,3.28h14.99c1.81,0,3.28-1.47,3.28-3.28v-14.99c0-1.81-1.47-3.28-3.28-3.28Zm2.86,18.27c0,1.58-1.28,2.86-2.86,2.86h-14.99c-1.58,0-2.86-1.28-2.86-2.86v-14.99c0-1.58,1.28-2.86,2.86-2.86h14.99c1.58,0,2.86,1.28,2.86,2.86v14.99Z"/></g><g class="cls-18"><rect class="cls-55" x="249.07" y="110.28" width="29.68" height="29.68" rx="3.28" ry="3.28"/><path class="cls-35" d="M275.47,110.28h-23.11c-1.81,0-3.28,1.47-3.28,3.28v23.11c0,1.81,1.47,3.28,3.28,3.28h23.11c1.81,0,3.28-1.47,3.28-3.28v-23.11c0-1.81-1.47-3.28-3.28-3.28Zm2.86,26.4c0,1.58-1.28,2.86-2.86,2.86h-23.11c-1.58,0-2.86-1.28-2.86-2.86v-23.11c0-1.58,1.28-2.86,2.86-2.86h23.11c1.58,0,2.86,1.28,2.86,2.86v23.11Z"/></g><g class="cls-44"><rect class="cls-33" x="10.17" y="243.4" width="12.15" height="12.15" rx="3.28" ry="3.28"/><path class="cls-35" d="M19.04,243.4h-5.58c-1.81,0-3.28,1.47-3.28,3.28v5.58c0,1.81,1.47,3.28,3.28,3.28h5.58c1.81,0,3.28-1.47,3.28-3.28v-5.58c0-1.81-1.47-3.28-3.28-3.28Zm2.86,8.86c0,1.58-1.28,2.86-2.86,2.86h-5.58c-1.58,0-2.86-1.28-2.86-2.86v-5.58c0-1.58,1.28-2.86,2.86-2.86h5.58c1.58,0,2.86,1.28,2.86,2.86v5.58Z"/></g><g class="cls-50"><rect class="cls-55" x="219.9" y="16.98" width="66.02" height="66.02" rx="3.28" ry="3.28"/><path class="cls-35" d="M282.63,16.98h-59.45c-1.81,0-3.28,1.47-3.28,3.28v59.45c0,1.81,1.47,3.28,3.28,3.28h59.45c1.81,0,3.28-1.47,3.28-3.28V20.27c0-1.81-1.47-3.28-3.28-3.28Zm2.86,62.73c0,1.58-1.28,2.86-2.86,2.86h-59.45c-1.58,0-2.86-1.28-2.86-2.86V20.27c0-1.58,1.28-2.86,2.86-2.86h59.45c1.58,0,2.86,1.28,2.86,2.86v59.45Z"/></g><g class="cls-31"><rect class="cls-33" x="192.29" y="21.09" width="17.52" height="17.52" rx="3.28" ry="3.28"/><path class="cls-35" d="M206.52,21.09h-10.95c-1.81,0-3.28,1.47-3.28,3.28v10.95c0,1.81,1.47,3.28,3.28,3.28h10.95c1.81,0,3.28-1.47,3.28-3.28v-10.95c0-1.81-1.47-3.28-3.28-3.28Zm2.86,14.24c0,1.58-1.28,2.86-2.86,2.86h-10.95c-1.58,0-2.86-1.28-2.86-2.86v-10.95c0-1.58,1.28-2.86,2.86-2.86h10.95c1.58,0,2.86,1.28,2.86,2.86v10.95Z"/></g><g class="cls-10"><rect class="cls-33" x="9.67" y="139.33" width="34.13" height="34.13" rx="3.28" ry="3.28"/><path class="cls-35" d="M12.95,173.46h27.56c1.81,0,3.28-1.47,3.28-3.28v-27.56c0-1.81-1.47-3.28-3.28-3.28H12.95c-1.81,0-3.28,1.47-3.28,3.28v27.56c0,1.81,1.47,3.28,3.28,3.28Zm-2.86-30.84c0-1.58,1.28-2.86,2.86-2.86h27.56c1.58,0,2.86,1.28,2.86,2.86v27.56c0,1.58-1.28,2.86-2.86,2.86H12.95c-1.58,0-2.86-1.28-2.86-2.86v-27.56Z"/></g><g class="cls-28"><rect class="cls-55" x="55.8" y="180.56" width="17.52" height="17.52" rx="3.28" ry="3.28"/><path class="cls-35" d="M70.04,180.56h-10.95c-1.81,0-3.28,1.47-3.28,3.28v10.95c0,1.81,1.47,3.28,3.28,3.28h10.95c1.81,0,3.28-1.47,3.28-3.28v-10.95c0-1.81-1.47-3.28-3.28-3.28Zm2.86,14.24c0,1.58-1.28,2.86-2.86,2.86h-10.95c-1.58,0-2.86-1.28-2.86-2.86v-10.95c0-1.58,1.28-2.86,2.86-2.86h10.95c1.58,0,2.86,1.28,2.86,2.86v10.95Z"/></g><g class="cls-16"><rect class="cls-55" x="-26.57" y="-20.06" width="66.02" height="66.02" rx="3.28" ry="3.28"/><path class="cls-35" d="M36.17-20.06H-23.28c-1.81,0-3.28,1.47-3.28,3.28V42.67c0,1.81,1.47,3.28,3.28,3.28H36.17c1.81,0,3.28-1.47,3.28-3.28V-16.78c0-1.81-1.47-3.28-3.28-3.28Zm2.86,62.73c0,1.58-1.28,2.86-2.86,2.86H-23.28c-1.58,0-2.86-1.28-2.86-2.86V-16.78c0-1.58,1.28-2.86,2.86-2.86H36.17c1.58,0,2.86,1.28,2.86,2.86V42.67Z"/></g></g><g><g class="cls-1"><rect class="cls-33" x="589.53" y="382.42" width="122.75" height="122.75" rx="3.28" ry="3.28"/><path class="cls-35" d="M708.99,382.42h-116.18c-1.81,0-3.28,1.47-3.28,3.28v116.18c0,1.81,1.47,3.28,3.28,3.28h116.18c1.81,0,3.28-1.47,3.28-3.28v-116.18c0-1.81-1.47-3.28-3.28-3.28Zm2.86,119.46c0,1.58-1.28,2.86-2.86,2.86h-116.18c-1.58,0-2.86-1.28-2.86-2.86v-116.18c0-1.58,1.28-2.86,2.86-2.86h116.18c1.58,0,2.86,1.28,2.86,2.86v116.18Z"/></g><g class="cls-57"><rect class="cls-33" x="485.74" y="372.7" width="11.62" height="11.62" rx="3.28" ry="3.28"/><path class="cls-35" d="M494.08,372.7h-5.06c-1.81,0-3.28,1.47-3.28,3.28v5.06c0,1.81,1.47,3.28,3.28,3.28h5.06c1.81,0,3.28-1.47,3.28-3.28v-5.06c0-1.81-1.47-3.28-3.28-3.28Zm2.86,8.34c0,1.58-1.28,2.86-2.86,2.86h-5.06c-1.58,0-2.86-1.28-2.86-2.86v-5.06c0-1.58,1.28-2.86,2.86-2.86h5.06c1.58,0,2.86,1.28,2.86,2.86v5.06Z"/></g><g class="cls-47"><rect class="cls-33" x="192.15" y="490.26" width="11.62" height="11.62" rx="3.28" ry="3.28"/><path class="cls-35" d="M200.49,490.26h-5.06c-1.81,0-3.28,1.47-3.28,3.28v5.06c0,1.81,1.47,3.28,3.28,3.28h5.06c1.81,0,3.28-1.47,3.28-3.28v-5.06c0-1.81-1.47-3.28-3.28-3.28Zm2.86,8.34c0,1.58-1.28,2.86-2.86,2.86h-5.06c-1.58,0-2.86-1.28-2.86-2.86v-5.06c0-1.58,1.28-2.86,2.86-2.86h5.06c1.58,0,2.86,1.28,2.86,2.86v5.06Z"/></g><g class="cls-29"><rect class="cls-55" x="599.48" y="271.75" width="20.92" height="20.92" rx="3.28" ry="3.28"/><path class="cls-35" d="M602.76,292.67h14.35c1.81,0,3.28-1.47,3.28-3.28v-14.35c0-1.81-1.47-3.28-3.28-3.28h-14.35c-1.81,0-3.28,1.47-3.28,3.28v14.35c0,1.81,1.47,3.28,3.28,3.28Zm-2.86-17.64c0-1.58,1.28-2.86,2.86-2.86h14.35c1.58,0,2.86,1.28,2.86,2.86v14.35c0,1.58-1.28,2.86-2.86,2.86h-14.35c-1.58,0-2.86-1.28-2.86-2.86v-14.35Z"/></g><g class="cls-13"><rect class="cls-33" x="500.7" y="397.77" width="71.3" height="71.3" rx="3.28" ry="3.28"/><path class="cls-35" d="M503.98,469.07h64.73c1.81,0,3.28-1.47,3.28-3.28v-64.73c0-1.81-1.47-3.28-3.28-3.28h-64.73c-1.81,0-3.28,1.47-3.28,3.28v64.73c0,1.81,1.47,3.28,3.28,3.28Zm-2.86-68.02c0-1.58,1.28-2.86,2.86-2.86h64.73c1.58,0,2.86,1.28,2.86,2.86v64.73c0,1.58-1.28,2.86-2.86,2.86h-64.73c-1.58,0-2.86-1.28-2.86-2.86v-64.73Z"/></g><g class="cls-51"><rect class="cls-33" x="238.89" y="475.66" width="51.26" height="51.26" rx="3.28" ry="3.28"/><path class="cls-35" d="M238.89,478.95v44.69c0,1.81,1.47,3.28,3.28,3.28h44.69c1.81,0,3.28-1.47,3.28-3.28v-44.69c0-1.81-1.47-3.28-3.28-3.28h-44.69c-1.81,0-3.28,1.47-3.28,3.28Zm50.84,0v44.69c0,1.58-1.28,2.86-2.86,2.86h-44.69c-1.58,0-2.86-1.28-2.86-2.86v-44.69c0-1.58,1.28-2.86,2.86-2.86h44.69c1.58,0,2.86,1.28,2.86,2.86Z"/></g><g class="cls-5"><rect class="cls-55" x="676.43" y="289.44" width="101.05" height="101.05" rx="3.28" ry="3.28"/><path class="cls-35" d="M679.71,390.49h94.48c1.81,0,3.28-1.47,3.28-3.28v-94.48c0-1.81-1.47-3.28-3.28-3.28h-94.48c-1.81,0-3.28,1.47-3.28,3.28v94.48c0,1.81,1.47,3.28,3.28,3.28Zm-2.86-97.77c0-1.58,1.28-2.86,2.86-2.86h94.48c1.58,0,2.86,1.28,2.86,2.86v94.48c0,1.58-1.28,2.86-2.86,2.86h-94.48c-1.58,0-2.86-1.28-2.86-2.86v-94.48Z"/></g><g class="cls-27"><rect class="cls-55" x="604.06" y="350.17" width="56.68" height="56.68" rx="3.28" ry="3.28"/><path class="cls-35" d="M607.34,406.85h50.11c1.81,0,3.28-1.47,3.28-3.28v-50.11c0-1.81-1.47-3.28-3.28-3.28h-50.11c-1.81,0-3.28,1.47-3.28,3.28v50.11c0,1.81,1.47,3.28,3.28,3.28Zm-2.86-53.4c0-1.58,1.28-2.86,2.86-2.86h50.11c1.58,0,2.86,1.28,2.86,2.86v50.11c0,1.58-1.28,2.86-2.86,2.86h-50.11c-1.58,0-2.86-1.28-2.86-2.86v-50.11Z"/></g><g class="cls-38"><rect class="cls-33" x="694.69" y="52.28" width="122.75" height="122.75" rx="3.28" ry="3.28"/><path class="cls-35" d="M697.97,175.03h116.18c1.81,0,3.28-1.47,3.28-3.28V55.56c0-1.81-1.47-3.28-3.28-3.28h-116.18c-1.81,0-3.28,1.47-3.28,3.28v116.18c0,1.81,1.47,3.28,3.28,3.28Zm-2.86-119.46c0-1.58,1.28-2.86,2.86-2.86h116.18c1.58,0,2.86,1.28,2.86,2.86v116.18c0,1.58-1.28,2.86-2.86,2.86h-116.18c-1.58,0-2.86-1.28-2.86-2.86V55.56Z"/></g><g class="cls-9"><rect class="cls-55" x="732.22" y="205.61" width="38.67" height="38.67" rx="3.28" ry="3.28"/><path class="cls-35" d="M735.5,244.27h32.1c1.81,0,3.28-1.47,3.28-3.28v-32.1c0-1.81-1.47-3.28-3.28-3.28h-32.1c-1.81,0-3.28,1.47-3.28,3.28v32.1c0,1.81,1.47,3.28,3.28,3.28Zm-2.86-35.38c0-1.58,1.28-2.86,2.86-2.86h32.1c1.58,0,2.86,1.28,2.86,2.86v32.1c0,1.58-1.28,2.86-2.86,2.86h-32.1c-1.58,0-2.86-1.28-2.86-2.86v-32.1Z"/></g><g class="cls-23"><rect class="cls-33" x="341.5" y="439.2" width="25.29" height="25.29" rx="3.28" ry="3.28"/><path class="cls-35" d="M344.78,464.49h18.72c1.81,0,3.28-1.47,3.28-3.28v-18.72c0-1.81-1.47-3.28-3.28-3.28h-18.72c-1.81,0-3.28,1.47-3.28,3.28v18.72c0,1.81,1.47,3.28,3.28,3.28Zm-2.86-22.01c0-1.58,1.28-2.86,2.86-2.86h18.72c1.58,0,2.86,1.28,2.86,2.86v18.72c0,1.58-1.28,2.86-2.86,2.86h-18.72c-1.58,0-2.86-1.28-2.86-2.86v-18.72Z"/></g><g class="cls-24"><rect class="cls-55" x="710.9" y="153.67" width="40.56" height="40.56" rx="3.28" ry="3.28"/><path class="cls-35" d="M714.19,194.23h33.99c1.81,0,3.28-1.47,3.28-3.28v-33.99c0-1.81-1.47-3.28-3.28-3.28h-33.99c-1.81,0-3.28,1.47-3.28,3.28v33.99c0,1.81,1.47,3.28,3.28,3.28Zm-2.86-37.28c0-1.58,1.28-2.86,2.86-2.86h33.99c1.58,0,2.86,1.28,2.86,2.86v33.99c0,1.58-1.28,2.86-2.86,2.86h-33.99c-1.58,0-2.86-1.28-2.86-2.86v-33.99Z"/></g><g class="cls-49"><rect class="cls-33" x="675.05" y="92.76" width="49.54" height="49.54" rx="3.28" ry="3.28"/><path class="cls-35" d="M721.31,92.76h-42.97c-1.81,0-3.28,1.47-3.28,3.28v42.97c0,1.81,1.47,3.28,3.28,3.28h42.97c1.81,0,3.28-1.47,3.28-3.28v-42.97c0-1.81-1.47-3.28-3.28-3.28Zm2.86,46.25c0,1.58-1.28,2.86-2.86,2.86h-42.97c-1.58,0-2.86-1.28-2.86-2.86v-42.97c0-1.58,1.28-2.86,2.86-2.86h42.97c1.58,0,2.86,1.28,2.86,2.86v42.97Z"/></g><g class="cls-21"><rect class="cls-55" x="393.78" y="489.67" width="11.62" height="11.62" rx="3.28" ry="3.28"/><path class="cls-35" d="M402.12,489.67h-5.06c-1.81,0-3.28,1.47-3.28,3.28v5.06c0,1.81,1.47,3.28,3.28,3.28h5.06c1.81,0,3.28-1.47,3.28-3.28v-5.06c0-1.81-1.47-3.28-3.28-3.28Zm2.86,8.34c0,1.58-1.28,2.86-2.86,2.86h-5.06c-1.58,0-2.86-1.28-2.86-2.86v-5.06c0-1.58,1.28-2.86,2.86-2.86h5.06c1.58,0,2.86,1.28,2.86,2.86v5.06Z"/></g><g class="cls-26"><rect class="cls-55" x="630.76" y="196.85" width="11.62" height="11.62" rx="3.28" ry="3.28"/><path class="cls-35" d="M639.1,196.85h-5.06c-1.81,0-3.28,1.47-3.28,3.28v5.06c0,1.81,1.47,3.28,3.28,3.28h5.06c1.81,0,3.28-1.47,3.28-3.28v-5.06c0-1.81-1.47-3.28-3.28-3.28Zm2.86,8.34c0,1.58-1.28,2.86-2.86,2.86h-5.06c-1.58,0-2.86-1.28-2.86-2.86v-5.06c0-1.58,1.28-2.86,2.86-2.86h5.06c1.58,0,2.86,1.28,2.86,2.86v5.06Z"/></g><g class="cls-14"><rect class="cls-33" x="410.36" y="471.3" width="49.54" height="49.54" rx="3.28" ry="3.28"/><path class="cls-35" d="M456.62,471.3h-42.97c-1.81,0-3.28,1.47-3.28,3.28v42.97c0,1.81,1.47,3.28,3.28,3.28h42.97c1.81,0,3.28-1.47,3.28-3.28v-42.97c0-1.81-1.47-3.28-3.28-3.28Zm2.86,46.25c0,1.58-1.28,2.86-2.86,2.86h-42.97c-1.58,0-2.86-1.28-2.86-2.86v-42.97c0-1.58,1.28-2.86,2.86-2.86h42.97c1.58,0,2.86,1.28,2.86,2.86v42.97Z"/></g><g class="cls-41"><rect class="cls-55" x="615.76" y="450.58" width="34.13" height="34.13" rx="3.28" ry="3.28"/><path class="cls-35" d="M646.6,450.58h-27.56c-1.81,0-3.28,1.47-3.28,3.28v27.56c0,1.81,1.47,3.28,3.28,3.28h27.56c1.81,0,3.28-1.47,3.28-3.28v-27.56c0-1.81-1.47-3.28-3.28-3.28Zm2.86,30.84c0,1.58-1.28,2.86-2.86,2.86h-27.56c-1.58,0-2.86-1.28-2.86-2.86v-27.56c0-1.58,1.28-2.86,2.86-2.86h27.56c1.58,0,2.86,1.28,2.86,2.86v27.56Z"/></g><g class="cls-39"><rect class="cls-55" x="526.03" y="307.3" width="54.39" height="54.39" rx="3.28" ry="3.28"/><path class="cls-35" d="M529.32,361.69h47.82c1.81,0,3.28-1.47,3.28-3.28v-47.82c0-1.81-1.47-3.28-3.28-3.28h-47.82c-1.81,0-3.28,1.47-3.28,3.28v47.82c0,1.81,1.47,3.28,3.28,3.28Zm-2.86-51.11c0-1.58,1.28-2.86,2.86-2.86h47.82c1.58,0,2.86,1.28,2.86,2.86v47.82c0,1.58-1.28,2.86-2.86,2.86h-47.82c-1.58,0-2.86-1.28-2.86-2.86v-47.82Z"/></g><g class="cls-52"><rect class="cls-33" x="532.75" y="434.96" width="21.56" height="21.56" rx="3.28" ry="3.28"/><path class="cls-35" d="M536.03,456.51h14.99c1.81,0,3.28-1.47,3.28-3.28v-14.99c0-1.81-1.47-3.28-3.28-3.28h-14.99c-1.81,0-3.28,1.47-3.28,3.28v14.99c0,1.81,1.47,3.28,3.28,3.28Zm-2.86-18.27c0-1.58,1.28-2.86,2.86-2.86h14.99c1.58,0,2.86,1.28,2.86,2.86v14.99c0,1.58-1.28,2.86-2.86,2.86h-14.99c-1.58,0-2.86-1.28-2.86-2.86v-14.99Z"/></g><g class="cls-7"><rect class="cls-55" x="442.24" y="418.16" width="29.68" height="29.68" rx="3.28" ry="3.28"/><path class="cls-35" d="M445.52,447.84h23.11c1.81,0,3.28-1.47,3.28-3.28v-23.11c0-1.81-1.47-3.28-3.28-3.28h-23.11c-1.81,0-3.28,1.47-3.28,3.28v23.11c0,1.81,1.47,3.28,3.28,3.28Zm-2.86-26.4c0-1.58,1.28-2.86,2.86-2.86h23.11c1.58,0,2.86,1.28,2.86,2.86v23.11c0,1.58-1.28,2.86-2.86,2.86h-23.11c-1.58,0-2.86-1.28-2.86-2.86v-23.11Z"/></g><g class="cls-15"><rect class="cls-33" x="732.22" y="247.81" width="12.15" height="12.15" rx="3.28" ry="3.28"/><path class="cls-35" d="M735.5,259.95h5.58c1.81,0,3.28-1.47,3.28-3.28v-5.58c0-1.81-1.47-3.28-3.28-3.28h-5.58c-1.81,0-3.28,1.47-3.28,3.28v5.58c0,1.81,1.47,3.28,3.28,3.28Zm-2.86-8.86c0-1.58,1.28-2.86,2.86-2.86h5.58c1.58,0,2.86,1.28,2.86,2.86v5.58c0,1.58-1.28,2.86-2.86,2.86h-5.58c-1.58,0-2.86-1.28-2.86-2.86v-5.58Z"/></g><g class="cls-36"><rect class="cls-55" x="645.92" y="211.88" width="66.02" height="66.02" rx="3.28" ry="3.28"/><path class="cls-35" d="M649.2,277.9h59.45c1.81,0,3.28-1.47,3.28-3.28v-59.45c0-1.81-1.47-3.28-3.28-3.28h-59.45c-1.81,0-3.28,1.47-3.28,3.28v59.45c0,1.81,1.47,3.28,3.28,3.28Zm-2.86-62.73c0-1.58,1.28-2.86,2.86-2.86h59.45c1.58,0,2.86,1.28,2.86,2.86v59.45c0,1.58-1.28,2.86-2.86,2.86h-59.45c-1.58,0-2.86-1.28-2.86-2.86v-59.45Z"/></g><g class="cls-30"><rect class="cls-33" x="517.27" y="475.49" width="17.52" height="17.52" rx="3.28" ry="3.28"/><path class="cls-35" d="M520.55,493.01h10.95c1.81,0,3.28-1.47,3.28-3.28v-10.95c0-1.81-1.47-3.28-3.28-3.28h-10.95c-1.81,0-3.28,1.47-3.28,3.28v10.95c0,1.81,1.47,3.28,3.28,3.28Zm-2.86-14.24c0-1.58,1.28-2.86,2.86-2.86h10.95c1.58,0,2.86,1.28,2.86,2.86v10.95c0,1.58-1.28,2.86-2.86,2.86h-10.95c-1.58,0-2.86-1.28-2.86-2.86v-10.95Z"/></g><g class="cls-32"><rect class="cls-55" x="333.85" y="488.22" width="17.52" height="17.52" rx="3.28" ry="3.28"/><path class="cls-35" d="M337.14,505.75h10.95c1.81,0,3.28-1.47,3.28-3.28v-10.95c0-1.81-1.47-3.28-3.28-3.28h-10.95c-1.81,0-3.28,1.47-3.28,3.28v10.95c0,1.81,1.47,3.28,3.28,3.28Zm-2.86-14.24c0-1.58,1.28-2.86,2.86-2.86h10.95c1.58,0,2.86,1.28,2.86,2.86v10.95c0,1.58-1.28,2.86-2.86,2.86h-10.95c-1.58,0-2.86-1.28-2.86-2.86v-10.95Z"/></g><g class="cls-48"><rect class="cls-55" x="699.4" y="416.52" width="66.02" height="66.02" rx="3.28" ry="3.28"/><path class="cls-35" d="M702.68,482.54h59.45c1.81,0,3.28-1.47,3.28-3.28v-59.45c0-1.81-1.47-3.28-3.28-3.28h-59.45c-1.81,0-3.28,1.47-3.28,3.28v59.45c0,1.81,1.47,3.28,3.28,3.28Zm-2.86-62.73c0-1.58,1.28-2.86,2.86-2.86h59.45c1.58,0,2.86,1.28,2.86,2.86v59.45c0,1.58-1.28,2.86-2.86,2.86h-59.45c-1.58,0-2.86-1.28-2.86-2.86v-59.45Z"/></g><g class="cls-6"><rect class="cls-33" x="721.23" y="433.52" width="34.13" height="34.13" rx="3.28" ry="3.28"/><path class="cls-35" d="M752.07,433.52h-27.56c-1.81,0-3.28,1.47-3.28,3.28v27.56c0,1.81,1.47,3.28,3.28,3.28h27.56c1.81,0,3.28-1.47,3.28-3.28v-27.56c0-1.81-1.47-3.28-3.28-3.28Zm2.86,30.84c0,1.58-1.28,2.86-2.86,2.86h-27.56c-1.58,0-2.86-1.28-2.86-2.86v-27.56c0-1.58,1.28-2.86,2.86-2.86h27.56c1.58,0,2.86,1.28,2.86,2.86v27.56Z"/></g></g></g></g></svg>