<?xml version="1.0" encoding="UTF-8"?><svg id="Layer_1" xmlns="http://www.w3.org/2000/svg" viewBox="0 0 2000 518"><defs><style>.cls-1{fill:#30afb5;}.cls-2{fill:#31afb5;stroke:#135775;stroke-miterlimit:10;stroke-width:4px;}</style></defs><g><g><path class="cls-1" d="M658.31,427.22h-6.31v-34.8h6.31v34.8Z"/><path class="cls-1" d="M710.81,424.53c0,.45-.08,.87-.25,1.26-.17,.39-.4,.72-.68,1.01-.28,.28-.62,.51-1.01,.67s-.8,.24-1.24,.24c-.39,0-.78-.07-1.18-.22-.4-.15-.75-.38-1.06-.7l-23.05-24.07v24.51h-6.31v-32.1c0-.65,.18-1.23,.55-1.76s.83-.92,1.4-1.18c.6-.24,1.21-.3,1.84-.18s1.17,.42,1.63,.89l23.05,24.05v-24.51h6.31v32.1Z"/><path class="cls-1" d="M759.94,398.74h-13.9v28.49h-6.31v-28.49h-13.93v-6.31h34.14v6.31Z"/><path class="cls-1" d="M803.54,413h-19.92v-6.36h19.92v6.36Zm2.84,14.22h-22.76c-.87,0-1.83-.15-2.86-.46-1.04-.31-1.99-.81-2.88-1.52-.88-.7-1.62-1.62-2.21-2.74-.59-1.12-.89-2.5-.89-4.14v-22.76c0-.44,.08-.85,.24-1.24s.38-.73,.67-1.02,.62-.52,1.01-.68c.39-.16,.81-.24,1.26-.24h28.42v6.31h-25.28v19.63c0,.83,.22,1.46,.66,1.89,.44,.44,1.08,.66,1.92,.66h22.71v6.31Z"/><path class="cls-1" d="M856.94,424.04c0,.45-.08,.87-.24,1.26-.16,.39-.38,.72-.67,1.01s-.62,.51-1.01,.67-.81,.24-1.26,.24h-22.76c-.58,0-1.21-.07-1.88-.21-.67-.14-1.33-.35-1.99-.64s-1.28-.67-1.88-1.13-1.13-1.02-1.59-1.67-.83-1.42-1.1-2.28c-.28-.87-.41-1.84-.41-2.92v-17.08c0-.58,.07-1.21,.21-1.88,.14-.67,.35-1.33,.64-1.99,.29-.66,.67-1.28,1.14-1.88,.47-.6,1.03-1.13,1.69-1.59,.66-.46,1.41-.83,2.27-1.1,.86-.28,1.83-.41,2.91-.41h25.65v6.31h-25.65c-.83,0-1.46,.22-1.89,.66-.44,.44-.66,1.08-.66,1.94v17.03c0,.81,.22,1.44,.67,1.88,.44,.44,1.07,.67,1.88,.67h19.63v-7.91h-16.79v-6.36h19.92c.45,0,.87,.08,1.26,.25,.39,.17,.72,.4,1.01,.69s.51,.63,.67,1.01c.16,.38,.24,.79,.24,1.23v14.22Z"/><path class="cls-1" d="M908.64,404.12c0,1.44-.18,2.73-.53,3.86-.36,1.13-.84,2.13-1.44,3-.61,.87-1.31,1.61-2.1,2.22-.79,.61-1.62,1.12-2.49,1.52-.87,.4-1.74,.68-2.62,.86s-1.71,.27-2.49,.27l13.18,11.38h-9.75l-13.15-11.38h-4.54v-6.31h14.27c.79-.06,1.52-.23,2.17-.5s1.22-.63,1.7-1.08,.85-1,1.1-1.64c.26-.64,.39-1.37,.39-2.2v-3.98c0-.36-.04-.63-.13-.81s-.2-.32-.34-.41-.28-.14-.44-.16-.3-.02-.42-.02h-20.82v28.49h-6.31v-31.62c0-.44,.08-.85,.24-1.24s.38-.73,.67-1.02,.62-.52,1.01-.68c.39-.16,.81-.24,1.26-.24h23.95c1.41,0,2.6,.25,3.57,.76s1.76,1.15,2.37,1.92c.61,.77,1.04,1.6,1.31,2.49,.27,.89,.4,1.72,.4,2.5v4.03Z"/><path class="cls-1" d="M959.47,427.22h-6.31v-8.54h-22.18v8.54h-6.31v-17.4c0-2.54,.44-4.88,1.31-7.01,.87-2.14,2.09-3.97,3.64-5.51,1.55-1.54,3.39-2.73,5.51-3.59,2.12-.86,4.43-1.29,6.94-1.29h14.22c.44,0,.85,.08,1.24,.24,.39,.16,.73,.39,1.02,.68s.52,.63,.68,1.02,.24,.8,.24,1.24v31.62Zm-28.49-14.85h22.18v-13.64h-11.09c-.19,0-.6,.03-1.23,.08s-1.34,.2-2.16,.42-1.68,.57-2.58,1.04-1.74,1.12-2.5,1.94c-.76,.83-1.39,1.86-1.88,3.09-.49,1.24-.74,2.74-.74,4.5v2.55Z"/><path class="cls-1" d="M1008.6,398.74h-13.9v28.49h-6.31v-28.49h-13.93v-6.31h34.14v6.31Z"/><path class="cls-1" d="M1029.95,427.22h-6.31v-34.8h6.31v34.8Z"/><path class="cls-1" d="M1082.45,424.53c0,.45-.08,.87-.25,1.26-.17,.39-.4,.72-.68,1.01s-.62,.51-1.01,.67c-.39,.16-.8,.24-1.24,.24-.39,0-.78-.07-1.18-.22s-.75-.38-1.06-.7l-23.05-24.07v24.51h-6.31v-32.1c0-.65,.18-1.23,.55-1.76,.36-.53,.83-.92,1.4-1.18,.6-.24,1.21-.3,1.84-.18s1.17,.42,1.63,.89l23.05,24.05v-24.51h6.31v32.1Z"/><path class="cls-1" d="M1134.47,424.04c0,.45-.08,.87-.24,1.26-.16,.39-.38,.72-.67,1.01-.28,.28-.62,.51-1.01,.67-.39,.16-.81,.24-1.26,.24h-22.76c-.58,0-1.21-.07-1.88-.21-.67-.14-1.33-.35-1.99-.64-.66-.29-1.28-.67-1.88-1.13-.6-.46-1.13-1.02-1.59-1.67s-.83-1.42-1.1-2.28c-.28-.87-.41-1.84-.41-2.92v-17.08c0-.58,.07-1.21,.21-1.88,.14-.67,.35-1.33,.64-1.99,.29-.66,.67-1.28,1.14-1.88,.47-.6,1.03-1.13,1.69-1.59s1.41-.83,2.27-1.1c.86-.28,1.83-.41,2.91-.41h25.65v6.31h-25.65c-.83,0-1.46,.22-1.89,.66s-.66,1.08-.66,1.94v17.03c0,.81,.22,1.44,.67,1.88,.44,.44,1.07,.67,1.88,.67h19.63v-7.91h-16.79v-6.36h19.92c.45,0,.87,.08,1.26,.25,.39,.17,.72,.4,1.01,.69s.51,.63,.67,1.01,.24,.79,.24,1.23v14.22Z"/><path class="cls-1" d="M1184.27,427.22h-6.31v-34.8h6.31v34.8Z"/><path class="cls-1" d="M1236.77,424.53c0,.45-.08,.87-.25,1.26-.17,.39-.4,.72-.68,1.01s-.62,.51-1.01,.67c-.39,.16-.8,.24-1.24,.24-.39,0-.78-.07-1.18-.22s-.75-.38-1.06-.7l-23.05-24.07v24.51h-6.31v-32.1c0-.65,.18-1.23,.55-1.76,.36-.53,.83-.92,1.4-1.18,.6-.24,1.21-.3,1.84-.18s1.17,.42,1.63,.89l23.05,24.05v-24.51h6.31v32.1Z"/><path class="cls-1" d="M1285.9,398.74h-13.9v28.49h-6.31v-28.49h-13.93v-6.31h34.14v6.31Z"/><path class="cls-1" d="M1329.5,413h-19.92v-6.36h19.92v6.36Zm2.84,14.22h-22.76c-.87,0-1.83-.15-2.86-.46-1.04-.31-1.99-.81-2.88-1.52-.88-.7-1.62-1.62-2.21-2.74-.59-1.12-.89-2.5-.89-4.14v-22.76c0-.44,.08-.85,.24-1.24,.16-.39,.38-.73,.67-1.02,.28-.29,.62-.52,1.01-.68,.39-.16,.81-.24,1.26-.24h28.42v6.31h-25.28v19.63c0,.83,.22,1.46,.66,1.89,.44,.44,1.08,.66,1.92,.66h22.71v6.31Z"/><path class="cls-1" d="M1380.74,427.22h-28.78c-.45,0-.87-.08-1.26-.24-.39-.16-.72-.38-1.01-.67-.28-.28-.51-.62-.67-1.01-.16-.39-.24-.81-.24-1.26v-31.62h6.31v28.49h25.65v6.31Z"/><path class="cls-1" d="M1427.69,427.22h-28.78c-.45,0-.87-.08-1.26-.24-.39-.16-.72-.38-1.01-.67-.28-.28-.51-.62-.67-1.01-.16-.39-.24-.81-.24-1.26v-31.62h6.31v28.49h25.65v6.31Z"/><path class="cls-1" d="M1471.14,413h-19.92v-6.36h19.92v6.36Zm2.84,14.22h-22.76c-.87,0-1.83-.15-2.86-.46-1.04-.31-1.99-.81-2.88-1.52-.88-.7-1.62-1.62-2.21-2.74s-.89-2.5-.89-4.14v-22.76c0-.44,.08-.85,.24-1.24,.16-.39,.38-.73,.67-1.02,.28-.29,.62-.52,1.01-.68,.39-.16,.81-.24,1.26-.24h28.42v6.31h-25.28v19.63c0,.83,.22,1.46,.66,1.89s1.08,.66,1.92,.66h22.71v6.31Z"/><path class="cls-1" d="M1521.36,427.22h-22.76c-.58,0-1.21-.07-1.88-.21-.67-.14-1.33-.35-1.99-.64-.66-.29-1.28-.67-1.88-1.13s-1.13-1.02-1.59-1.67c-.46-.66-.83-1.42-1.1-2.28-.28-.87-.41-1.84-.41-2.92v-17.08c0-.58,.07-1.21,.21-1.88,.14-.67,.35-1.33,.64-1.99,.29-.66,.67-1.28,1.14-1.88,.47-.6,1.03-1.13,1.69-1.59s1.41-.83,2.27-1.1c.86-.28,1.83-.41,2.91-.41h22.76v6.31h-22.76c-.83,0-1.46,.22-1.89,.66s-.66,1.08-.66,1.94v17.03c0,.81,.22,1.44,.67,1.88,.44,.44,1.07,.67,1.88,.67h22.76v6.31Z"/><path class="cls-1" d="M1569.13,398.74h-13.9v28.49h-6.31v-28.49h-13.93v-6.31h34.14v6.31Z"/><path class="cls-1" d="M1644.07,416.98c0,1.25-.16,2.37-.47,3.36-.32,.99-.73,1.87-1.25,2.63-.52,.76-1.12,1.41-1.82,1.94s-1.42,.97-2.16,1.31-1.5,.59-2.27,.75-1.49,.24-2.17,.24h-24.34v-6.31h24.34c1.21,0,2.16-.36,2.83-1.07,.67-.71,1.01-1.67,1.01-2.86,0-.58-.09-1.12-.27-1.6-.18-.49-.43-.91-.76-1.26s-.74-.63-1.21-.83-1.01-.29-1.59-.29h-14.51c-1.02,0-2.12-.18-3.3-.55-1.18-.36-2.28-.95-3.29-1.76-1.01-.81-1.85-1.87-2.52-3.18-.67-1.31-1.01-2.91-1.01-4.8s.34-3.49,1.01-4.79c.67-1.3,1.51-2.36,2.52-3.18,1.01-.82,2.11-1.41,3.29-1.77s2.28-.55,3.3-.55h21.48v6.31h-21.48c-1.2,0-2.13,.36-2.8,1.09-.67,.73-1.01,1.69-1.01,2.89s.34,2.17,1.01,2.88c.67,.7,1.61,1.06,2.8,1.06h14.56c.68,.02,1.4,.11,2.16,.28s1.52,.43,2.27,.79,1.47,.8,2.15,1.35c.68,.54,1.28,1.19,1.81,1.95,.53,.76,.94,1.63,1.25,2.62,.31,.99,.46,2.1,.46,3.35h0Z"/><path class="cls-1" d="M1690.75,398.74h-13.9v28.49h-6.31v-28.49h-13.93v-6.31h34.14v6.31Z"/><path class="cls-1" d="M1739.83,424.04c0,.45-.08,.87-.24,1.26-.16,.39-.39,.72-.68,1.01s-.63,.51-1.02,.67-.8,.24-1.24,.24h-14.22c-1.34,0-2.7-.15-4.08-.44-1.38-.29-2.71-.74-3.99-1.35-1.29-.61-2.5-1.38-3.63-2.32-1.13-.94-2.12-2.05-2.97-3.34-.85-1.29-1.52-2.76-2-4.42-.49-1.66-.73-3.51-.73-5.54v-17.4h6.31v17.4c0,1.78,.25,3.28,.74,4.51s1.12,2.26,1.88,3.08c.76,.83,1.59,1.47,2.5,1.94s1.77,.82,2.58,1.04c.82,.23,1.54,.37,2.16,.42s1.03,.08,1.23,.08h11.09v-28.49h6.31v31.62Z"/><path class="cls-1" d="M1792.24,412.66c0,2.12-.37,4.07-1.1,5.85s-1.75,3.31-3.05,4.6c-1.29,1.29-2.83,2.29-4.61,3.02-1.78,.73-3.71,1.09-5.8,1.09h-17.03c-.45,0-.87-.08-1.26-.24-.39-.16-.72-.38-1.01-.67-.28-.28-.51-.62-.67-1.01-.16-.39-.24-.81-.24-1.26v-28.44c0-.44,.08-.85,.24-1.24,.16-.39,.38-.73,.67-1.02,.28-.29,.62-.52,1.01-.68,.39-.16,.81-.24,1.26-.24h17.03c2.09,0,4.02,.36,5.8,1.09,1.78,.73,3.32,1.73,4.61,3.02,1.29,1.29,2.31,2.82,3.05,4.61s1.1,3.73,1.1,5.84v5.68Zm-6.31-5.68c0-1.23-.2-2.35-.59-3.37-.4-1.02-.96-1.89-1.69-2.61-.73-.72-1.6-1.28-2.61-1.67s-2.13-.59-3.36-.59h-13.9v22.18h13.9c1.23,0,2.35-.2,3.36-.59,1.01-.4,1.88-.95,2.61-1.67s1.29-1.59,1.69-2.6c.4-1.01,.59-2.14,.59-3.38v-5.68Z"/><path class="cls-1" d="M1837.39,413h-19.92v-6.36h19.92v6.36Zm2.84,14.22h-22.76c-.87,0-1.83-.15-2.86-.46-1.04-.31-1.99-.81-2.88-1.52-.88-.7-1.62-1.62-2.21-2.74-.59-1.12-.89-2.5-.89-4.14v-22.76c0-.44,.08-.85,.24-1.24,.16-.39,.38-.73,.67-1.02,.28-.29,.62-.52,1.01-.68,.39-.16,.81-.24,1.26-.24h28.42v6.31h-25.28v19.63c0,.83,.22,1.46,.66,1.89s1.08,.66,1.92,.66h22.71v6.31Z"/><path class="cls-1" d="M1891.44,424.53c0,.45-.08,.87-.25,1.26-.17,.39-.4,.72-.68,1.01s-.62,.51-1.01,.67c-.39,.16-.8,.24-1.24,.24-.39,0-.78-.07-1.18-.22-.4-.15-.75-.38-1.06-.7l-23.05-24.07v24.51h-6.31v-32.1c0-.65,.18-1.23,.55-1.76,.36-.53,.83-.92,1.4-1.18,.6-.24,1.21-.3,1.84-.18s1.17,.42,1.63,.89l23.05,24.05v-24.51h6.31v32.1Z"/><path class="cls-1" d="M1940.57,398.74h-13.9v28.49h-6.31v-28.49h-13.93v-6.31h34.14v6.31Z"/><path class="cls-1" d="M1989,416.98c0,1.25-.16,2.37-.47,3.36s-.73,1.87-1.25,2.63-1.12,1.41-1.82,1.94-1.42,.97-2.16,1.31-1.5,.59-2.27,.75-1.49,.24-2.17,.24h-24.34v-6.31h24.34c1.21,0,2.16-.36,2.83-1.07,.67-.71,1.01-1.67,1.01-2.86,0-.58-.09-1.12-.27-1.6-.18-.49-.43-.91-.76-1.26s-.74-.63-1.21-.83-1.01-.29-1.59-.29h-14.51c-1.02,0-2.12-.18-3.3-.55-1.18-.36-2.28-.95-3.29-1.76-1.01-.81-1.85-1.87-2.52-3.18-.67-1.31-1.01-2.91-1.01-4.8s.34-3.49,1.01-4.79c.67-1.3,1.51-2.36,2.52-3.18,1.01-.82,2.11-1.41,3.29-1.77,1.18-.36,2.28-.55,3.3-.55h21.48v6.31h-21.48c-1.2,0-2.13,.36-2.8,1.09-.67,.73-1.01,1.69-1.01,2.89s.34,2.17,1.01,2.88c.67,.7,1.61,1.06,2.8,1.06h14.56c.68,.02,1.4,.11,2.16,.28s1.52,.43,2.27,.79,1.47,.8,2.15,1.35,1.28,1.19,1.81,1.95c.53,.76,.94,1.63,1.25,2.62,.31,.99,.46,2.1,.46,3.35h0Z"/></g><path class="cls-1" d="M652.45,365.62v-3.64H1988.85v3.64H652.45Z"/><g><path class="cls-1" d="M652.45,121.85v.61c0,17.16,15.63,30.64,32.17,30.64h126.55c7.97,0,14.55,6.13,14.55,14.09s-6.59,14.25-14.86,14.25h-158.41v16.7h158.41c17.77,0,32.48-13.02,32.48-30.95s-15.63-30.95-32.17-30.95h-126.24c-8.27,0-14.86-6.43-14.86-14.25s6.59-14.09,14.86-14.09h175.57v90.24h17.47V108.06h86.87v-16.85h-279.9c-17.92,0-32.48,14.4-32.48,30.64h0Z"/><path class="cls-1" d="M977.09,90.9v78.75c0,15.93,14.55,28.5,29.87,28.5h131.14c15.63,0,29.87-12.56,29.87-28.5V90.9h-17.47v78.75c0,6.28-5.21,11.8-12.41,11.8h-131.14c-6.59,0-12.41-5.67-12.41-11.8V90.9h-17.47Z"/><path class="cls-1" d="M1314.6,107.76c21.75,0,38.76,16.7,38.76,36.77,0,21.3-17.92,36.92-38.76,36.92h-134.36v16.7h134.51c30.03,0,56.38-23.59,56.38-53.62s-25.74-53.47-56.38-53.47v-.15h-134.51v16.85h134.36Z"/><path class="cls-1" d="M1384.92,198.15h191.2v-16.85h-191.2v16.85Zm191.2-90.7v-16.7l-191.2-.15v16.85h191.2Zm-191.2,28.65v16.55h182.01v-16.55h-182.01Z"/><path class="cls-1" d="M1594.5,197.38h17.62V116.95c146,68.02,169.14,79.36,172.97,80.89l.61,.31V90.9h-17.47v80.43l-173.73-81.04v107.09Z"/><path class="cls-1" d="M1797.96,107.76h86.56v90.39h17.47V107.76h86.87v-16.85h-190.89v16.85Z"/><path class="cls-1" d="M668.97,328.39v-100.53h-16.52v100.53h16.52Z"/><path class="cls-1" d="M686.2,327.67h16.52v-75.4c136.87,63.77,158.56,74.4,162.15,75.83l.57,.29v-100.53h-16.37v75.4l-162.87-75.98v100.39Z"/><path class="cls-1" d="M876.93,243.51h81.15v84.88h16.37v-85.02h195.9v-15.65h-293.42v15.8Zm114.18,84.88h179.24v-15.65h-179.24v15.65Zm170.62-42.51v-15.65h-170.62v15.65h170.62Z"/><path class="cls-1" d="M1203.96,312.73v-84.88h-16.37v100.53h146.21v-15.65h-129.83Z"/><path class="cls-1" d="M1361.65,312.73v-84.88h-16.37v100.53h146.21v-15.65h-129.83Z"/><path class="cls-1" d="M1502.98,328.39h179.24v-15.8h-179.24v15.8Zm179.24-85.02v-15.65l-179.24-.14v15.8h179.24Zm-179.24,26.86v15.51h170.62v-15.51h-170.62Z"/><path class="cls-1" d="M1695.14,277.69v.43c0,28.15,24.42,50.27,52.85,50.27h126.53v-15.65h-126.53c-20.68,0-36.34-16.66-36.34-34.61,.14-2.15,.29-3.73,.72-5.31l.43-2.01c3.45-15.51,18.38-27.43,35.47-27.43h142.76v85.02h16.37v-84.88h81.43v-15.8h-137.45c-27.43,0-53.43,.14-75.4,.14h-28.15c-27.58,0-52.71,21.69-52.71,49.84h0Z"/></g></g><path class="cls-1" d="M567.49,444.59V73.41h6.36V444.59h-6.36Z"/><g><path class="cls-2" d="M322.97,327.85c0,52.51-34.87,96.88-82.72,111.2-10.56,3.18-21.75,4.88-33.35,4.88H13.17c8.06-42.77,39.58-77.25,80.7-89.57,10.56-3.17,21.76-4.87,33.36-4.87h79.67c11.95,0,21.64-9.68,21.64-21.64s-9.69-21.64-21.64-21.64H127.23c-11.59,0-22.8-1.7-33.36-4.87-47.85-14.33-82.72-58.69-82.72-111.2S46.02,93.27,93.87,78.95c10.56-3.18,21.76-4.88,33.36-4.88h192.79c.31,0,.62,0,.92,.01-8.06,42.77-39.59,77.25-80.7,89.56-10.56,3.17-21.75,4.87-33.35,4.87H127.23c-11.95,0-21.64,9.69-21.64,21.64s9.69,21.64,21.64,21.64h79.67c11.59,0,22.79,1.7,33.35,4.87,41.1,12.3,72.63,46.77,80.7,89.54,1.33,7.01,2.02,14.25,2.02,21.65h0Z"/><g><path class="cls-2" d="M489.75,442.92h-34.77c-26.43,0-50.8-8.84-70.31-23.72-19.25-14.67-33.77-35.24-40.88-59-3.18-10.56-4.88-21.76-4.88-33.36v-121.54h94.43v41.87c0,.31,0,.62-.01,.93h.01v78.74c.09,9.07,3.63,14.42,7.59,17.56,.01,.01,.03,.02,.04,.03,.47,.37,.93,.7,1.4,1.01,6.82,5,13.03,10.72,18.54,17.01,10.08,11.47,17.84,24.88,22.76,39.39,4.41,12.99,6.56,26.88,6.07,41.07h0Z"/><path class="cls-2" d="M433.23,184.23h-94.32V76c0-.31,0-.62,.01-.92,3.47,.66,6.88,1.47,10.24,2.42,37.24,10.6,66.82,39.34,78.63,76.05,.23,.73,.47,1.48,.69,2.22,1.14,3.82,2.1,7.74,2.86,11.72,1.03,5.46,1.68,11.05,1.9,16.74h0Z"/></g></g></svg>