<svg id="Layer_1" data-name="Layer 1" xmlns="http://www.w3.org/2000/svg" xmlns:xlink="http://www.w3.org/1999/xlink" viewBox="0 0 9803.24 1476.59"><defs><style>.cls-1,.cls-4{fill:none;}.cls-2{clip-path:url(#clip-path);}.cls-3{fill:#31afb5;}.cls-4{stroke:#135775;stroke-miterlimit:10;stroke-width:8px;}.cls-5{font-size:916px;fill:#2e2e2e;font-family:Poppins;}.cls-6{font-weight:700;}</style><clipPath id="clip-path"><rect class="cls-1" x="-80" y="-295.98" width="2048" height="2048"/></clipPath></defs><title>Student Intellect weblogo</title><g class="cls-2"><path class="cls-3" d="M1207.9,978.71c0,191.18-127,352.74-301.18,404.86a420.49,420.49,0,0,1-121.41,17.77H80c29.34-155.73,144.11-281.27,293.81-326.11a422.16,422.16,0,0,1,121.45-17.73H785.31a78.8,78.8,0,0,0,0-157.59H495.22a422.16,422.16,0,0,1-121.45-17.73C199.55,830,72.59,668.51,72.59,477.32s127-352.74,301.18-404.87A420.79,420.79,0,0,1,495.22,54.69h702c1.13,0,2.27,0,3.36,0C1171.2,210.46,1056.38,336,906.72,380.8a421.89,421.89,0,0,1-121.41,17.73H495.22a78.8,78.8,0,1,0,0,157.59H785.31a421.85,421.85,0,0,1,121.41,17.73c149.66,44.8,264.43,170.3,293.81,326A421.57,421.57,0,0,1,1207.9,978.71Z"/><path class="cls-4" d="M1207.9,978.71c0,191.18-127,352.74-301.18,404.86a420.49,420.49,0,0,1-121.41,17.77H80c29.34-155.73,144.11-281.27,293.81-326.11a422.16,422.16,0,0,1,121.45-17.73H785.31a78.8,78.8,0,0,0,0-157.59H495.22a422.16,422.16,0,0,1-121.45-17.73C199.55,830,72.59,668.51,72.59,477.32s127-352.74,301.18-404.87A420.79,420.79,0,0,1,495.22,54.69h702c1.13,0,2.27,0,3.36,0C1171.2,210.46,1056.38,336,906.72,380.8a421.89,421.89,0,0,1-121.41,17.73H495.22a78.8,78.8,0,1,0,0,157.59H785.31a421.85,421.85,0,0,1,121.41,17.73c149.66,44.8,264.43,170.3,293.81,326A421.57,421.57,0,0,1,1207.9,978.71Z"/><path class="cls-3" d="M1815.16,1397.66H1688.57A422.39,422.39,0,0,1,1265.94,975V532.49h343.84V684.94c0,1.13,0,2.27,0,3.4h0V975c0.32,33,13.23,52.49,27.64,63.94,0,0,.12.08,0.16,0.12,1.7,1.33,3.4,2.55,5.1,3.68A422.85,422.85,0,0,1,1815.16,1397.66Z"/><path class="cls-4" d="M1815.16,1397.66H1688.57A422.39,422.39,0,0,1,1265.94,975V532.49h343.84V684.94c0,1.13,0,2.27,0,3.4h0V975c0.32,33,13.23,52.49,27.64,63.94,0,0,.12.08,0.16,0.12,1.7,1.33,3.4,2.55,5.1,3.68A422.85,422.85,0,0,1,1815.16,1397.66Z"/><path class="cls-3" d="M1609.37,455.79H1265.94V61.73c0-1.13,0-2.27,0-3.36q18.94,3.58,37.27,8.82c135.58,38.61,243.31,143.22,286.29,276.9,0.85,2.67,1.7,5.38,2.51,8.09a425.32,425.32,0,0,1,10.4,42.66A414.34,414.34,0,0,1,1609.37,455.79Z"/><path class="cls-4" d="M1609.37,455.79H1265.94V61.73c0-1.13,0-2.27,0-3.36q18.94,3.58,37.27,8.82c135.58,38.61,243.31,143.22,286.29,276.9,0.85,2.67,1.7,5.38,2.51,8.09a425.32,425.32,0,0,1,10.4,42.66A414.34,414.34,0,0,1,1609.37,455.79Z"/></g><text class="cls-5" transform="translate(1900.94 1037.28)"><tspan class="cls-6">Student </tspan><tspan x="4128.36" y="0">Intellect</tspan></text></svg>